<svg width="1512" height="7504" viewBox="0 0 1512 7504" fill="none" xmlns="http://www.w3.org/2000/svg">
  <g clip-path="url(#clip0_74_9)">
    <rect width="1512" height="7504" fill="#E74C3C" />
    <path fill-rule="evenodd" clip-rule="evenodd" d="M1519.15 126C1097.48 278.167 337.348 713.4 668.148 1133C1081.65 1657.5 1248.95 2314.01 1106.5 2739.5C1080.4 2817.45 1044.06 2913.78 1002.8 3023.14C997.857 3036.24 992.843 3049.53 987.768 3063C949.878 3163.54 908.568 3273.99 867.66 3390.5C859.547 3413.6 851.45 3436.95 843.399 3460.5C812.627 3550.51 780.173 3651.57 752.396 3746C747.504 3762.63 745.032 3771.3 740.294 3788C711.424 3889.78 685.572 3992.81 664.793 4095C604.035 4393.81 586.649 4685.54 664 4918.5C915.702 5676.57 910.147 6893.5 769.148 7010.5C656.348 7104.1 652.814 7378.5 665.148 7504H1627.65V152L1519.15 126Z" fill="#F5B146" />
    <rect x="818" y="3772" width="621" height="277" rx="33" fill="#F5B146" />
    <path d="M1294 2631V1645H978.5C1059.5 1779 1234.5 2188.5 1135.5 2631H1294Z" fill="#1F1F1F" />
    <path d="M49 1645V2631H1135.5C1234.5 2188.5 1059.5 1779 978.5 1645H49Z" fill="#F5F6FA" />
    <circle cx="1249" cy="320" r="1.5" stroke="#323232" />
    <path fill-rule="evenodd" clip-rule="evenodd" d="M1537 859.565C1516.72 855.817 1482.38 846.533 1446.4 830.981C1412.57 816.357 1377.29 796.19 1350.91 769.875C1337.22 756.22 1317.09 747.111 1293.5 741.372C1223.27 724.291 1122.32 737.074 1068.95 748.735C1046.34 768.406 1038.64 781.867 1068.95 799.125C1080.83 805.89 1094.79 815.09 1109.93 826.054C1109.3 808.101 1117.07 777.582 1153.16 799.125C1189.25 820.668 1168.2 848.395 1153.16 859.565C1196.98 895.584 1243.47 939.733 1276.1 979.574C1295 993 1367.98 976.575 1397.15 954.375C1426.32 932.175 1470.83 923.25 1446.4 967.125C1435.24 994.25 1385 1045.5 1313.12 1035.75C1303 1042.5 1319.6 1054.2 1319.33 1061.62C1317.07 1123.88 1328.73 1320 1365.95 1320H1537V859.565Z" fill="#EF962F" />
    <path d="M1472.02 311.059C1412.86 316.938 1304.58 324.44 1319.33 394C1374.22 394.125 1531.89 399.075 1537 423.375V300C1519.15 306.376 1495.79 308.697 1472.02 311.059Z" fill="#1F1F1F" />
    <path d="M1391.83 677.25C1382.2 686.664 1374.49 697.989 1368.43 710C1358.39 729.938 1352.93 751.765 1350.91 769.875C1377.29 796.19 1412.57 816.357 1446.4 830.981C1522.79 767.765 1441.85 702.154 1391.83 677.25Z" fill="#DE5D83" />
    <path fill-rule="evenodd" clip-rule="evenodd" d="M1198.28 559.875C1219.03 420.075 1272.09 391.5 1319.33 394C1374.22 394.125 1531.89 399.075 1537 423.375V677.25C1466.86 637.973 1420.73 649.008 1391.83 677.25C1382.2 686.664 1374.49 697.989 1368.43 710C1347.29 710.956 1302.7 718.57 1293.5 741.372C1223.27 724.291 1122.32 737.074 1068.95 748.735C1073.61 744.68 1078.91 740.361 1084.63 735.69L1084.64 735.684L1084.64 735.683C1124.17 703.442 1184.24 654.45 1198.28 559.875ZM1276.1 513H1365.95C1360.56 497.25 1343.69 468.75 1319.33 480.75C1294.97 492.75 1280.36 507.25 1276.1 513Z" fill="#C74C4E" />
    <path d="M1350.91 769.875C1352.93 751.765 1358.39 729.938 1368.43 710C1347.29 710.956 1302.7 718.57 1293.5 741.372C1317.09 747.111 1337.22 756.22 1350.91 769.875Z" fill="#F5F6FA" />
    <path fill-rule="evenodd" clip-rule="evenodd" d="M405.5 869C609.569 869 775 703.569 775 499.5C775 295.431 609.569 130 405.5 130C319.237 130 239.878 159.561 177 209.105C351.833 349.827 610.5 671.644 246.5 833.136C294.659 856.128 348.576 869 405.5 869Z" fill="#F5B146" />
    <path fill-rule="evenodd" clip-rule="evenodd" d="M61.4384 634.5C59.111 628.573 56.9324 622.572 54.9071 616.5C118.771 617.833 246.5 614.8 246.5 592C246.5 563.5 221.5 288.209 177 209.105C351.833 349.827 610.5 671.644 246.5 833.136C162.319 792.946 95.7328 721.835 61.4384 634.5Z" fill="#1F1F1F" />
    <path d="M177 209.105C91.131 276.765 36 381.694 36 499.5C36 540.391 42.6424 579.732 54.9071 616.5C118.771 617.833 246.5 614.8 246.5 592C246.5 563.5 221.5 288.209 177 209.105Z" fill="#F5F6FA" />
    <line x1="772" y1="128.5" x2="39" y2="128.5" stroke="black" stroke-width="3" />
    <line x1="775" y1="870.5" x2="41" y2="870.5" stroke="black" stroke-width="3" />
    <line x1="34.5" y1="130" x2="34.5" y2="864" stroke="black" stroke-width="3" />
    <line x1="776.5" y1="866" x2="776.5" y2="135" stroke="black" stroke-width="3" />
    <rect x="768" y="121" width="14" height="14" fill="#1F1F1F" />
    <rect x="29" y="123" width="14" height="14" fill="#1F1F1F" />
    <rect x="27" y="864" width="14" height="14" fill="#1F1F1F" />
    <rect x="771" y="862" width="14" height="14" fill="#1F1F1F" />
    <path d="M435.504 292.032V293.952C434.096 294.464 432.624 295.584 431.088 297.312C429.552 298.976 428.208 301.664 427.056 305.376L410.16 360.192C409.648 360.128 409.104 360.096 408.528 360.096C407.952 360.096 407.376 360.096 406.8 360.096C406.224 360.096 405.648 360.096 405.072 360.096C404.496 360.096 403.952 360.128 403.44 360.192L383.28 299.136C382.64 297.152 381.84 295.808 380.88 295.104C379.984 294.4 379.024 294.016 378 293.952V292.032C379.792 292.096 381.904 292.16 384.336 292.224C386.832 292.288 389.296 292.32 391.728 292.32C394.544 292.32 397.168 292.288 399.6 292.224C402.096 292.16 404.08 292.096 405.552 292.032V293.952C403.632 294.016 402.096 294.24 400.944 294.624C399.856 295.008 399.216 295.744 399.024 296.832C398.896 297.92 399.216 299.648 399.984 302.016L413.616 343.68L411.408 347.616L422.256 313.152C423.792 308.288 424.528 304.48 424.464 301.728C424.4 298.976 423.664 297.024 422.256 295.872C420.848 294.656 418.832 294.016 416.208 293.952V292.032C418.384 292.096 420.432 292.16 422.352 292.224C424.272 292.288 426.192 292.32 428.112 292.32C429.584 292.32 430.928 292.288 432.144 292.224C433.424 292.16 434.544 292.096 435.504 292.032ZM366.96 292.032V293.952C365.68 294.144 364.784 294.624 364.272 295.392C363.76 296.096 363.536 297.056 363.6 298.272C363.728 299.424 364.016 300.672 364.464 302.016L379.152 344.64L376.56 348.096L388.848 312.192L390.192 314.784L375.12 360.192C374.608 360.128 374.064 360.096 373.488 360.096C372.912 360.096 372.336 360.096 371.76 360.096C371.184 360.096 370.608 360.096 370.032 360.096C369.456 360.096 368.912 360.128 368.4 360.192L346.896 300.096C346.064 297.728 345.072 296.128 343.92 295.296C342.832 294.464 341.808 294.016 340.848 293.952V292.032C342.768 292.096 345.04 292.16 347.664 292.224C350.288 292.288 352.784 292.32 355.152 292.32C357.712 292.32 359.984 292.288 361.968 292.224C364.016 292.16 365.68 292.096 366.96 292.032ZM455.228 309.024C460.86 309.024 465.276 310.688 468.476 314.016C471.676 317.344 473.276 322.784 473.276 330.336H441.692L441.5 328.512H461.18C461.244 325.376 461.052 322.496 460.604 319.872C460.156 317.184 459.452 315.04 458.492 313.44C457.532 311.84 456.252 311.04 454.652 311.04C452.412 311.04 450.492 312.448 448.892 315.264C447.356 318.08 446.428 322.752 446.108 329.28L446.396 329.856C446.332 330.624 446.268 331.424 446.204 332.256C446.204 333.088 446.204 333.952 446.204 334.848C446.204 339.264 446.812 342.848 448.028 345.6C449.308 348.352 450.908 350.368 452.828 351.648C454.748 352.864 456.7 353.472 458.684 353.472C460.028 353.472 461.404 353.28 462.812 352.896C464.284 352.448 465.756 351.68 467.228 350.592C468.7 349.44 470.076 347.84 471.356 345.792L473.084 346.368C472.316 348.8 471.1 351.168 469.436 353.472C467.772 355.776 465.66 357.664 463.1 359.136C460.54 360.608 457.468 361.344 453.884 361.344C449.532 361.344 445.692 360.416 442.364 358.56C439.036 356.704 436.412 353.888 434.492 350.112C432.636 346.336 431.708 341.536 431.708 335.712C431.708 329.76 432.7 324.8 434.684 320.832C436.732 316.864 439.516 313.92 443.036 312C446.62 310.016 450.684 309.024 455.228 309.024Z" fill="#1F1F1F" />
    <path d="M462.112 367.688C466.336 367.688 469.792 368.328 472.48 369.608C475.232 370.824 477.664 372.264 479.776 373.928C481.056 374.888 482.016 375.016 482.656 374.312C483.36 373.544 483.84 371.784 484.096 369.032H486.304C486.176 371.528 486.08 374.568 486.016 378.152C485.952 381.672 485.92 386.376 485.92 392.264H483.712C483.392 389.32 482.976 386.824 482.464 384.776C481.952 382.664 481.248 380.808 480.352 379.208C479.456 377.608 478.176 376.168 476.512 374.888C474.912 373.288 473.056 372.104 470.944 371.336C468.832 370.568 466.624 370.184 464.32 370.184C460.864 370.184 457.92 371.112 455.488 372.968C453.056 374.76 451.072 377.224 449.536 380.36C448.064 383.496 446.976 387.048 446.272 391.016C445.568 394.92 445.216 398.984 445.216 403.208C445.216 407.496 445.568 411.624 446.272 415.592C447.04 419.496 448.192 422.984 449.728 426.056C451.328 429.128 453.376 431.56 455.872 433.352C458.368 435.144 461.312 436.04 464.704 436.04C466.816 436.04 468.928 435.656 471.04 434.888C473.216 434.056 475.072 432.872 476.608 431.336C479.104 429.416 480.8 427.048 481.696 424.232C482.592 421.352 483.264 417.544 483.712 412.808H485.92C485.92 418.888 485.952 423.816 486.016 427.592C486.08 431.304 486.176 434.44 486.304 437H484.096C483.84 434.248 483.392 432.52 482.752 431.816C482.176 431.112 481.184 431.208 479.776 432.104C477.408 433.768 474.88 435.24 472.192 436.52C469.568 437.736 466.176 438.344 462.016 438.344C455.232 438.344 449.28 436.968 444.16 434.216C439.104 431.464 435.168 427.496 432.352 422.312C429.536 417.128 428.128 410.888 428.128 403.592C428.128 396.424 429.568 390.152 432.448 384.776C435.392 379.4 439.392 375.208 444.448 372.2C449.568 369.192 455.456 367.688 462.112 367.688ZM527.016 386.024C529.064 386.024 530.728 386.472 532.008 387.368C533.288 388.2 534.216 389.288 534.792 390.632C535.432 391.976 535.752 393.384 535.752 394.856C535.752 397.224 535.048 399.176 533.64 400.712C532.296 402.184 530.504 402.92 528.264 402.92C526.024 402.92 524.264 402.376 522.984 401.288C521.768 400.136 521.16 398.632 521.16 396.776C521.16 394.984 521.544 393.512 522.312 392.36C523.144 391.144 524.168 390.12 525.384 389.288C524.488 389.032 523.592 389.064 522.696 389.384C521.48 389.576 520.328 390.088 519.24 390.92C518.152 391.688 517.224 392.68 516.456 393.896C515.688 395.048 515.08 396.328 514.632 397.736C514.184 399.08 513.96 400.392 513.96 401.672V427.112C513.96 430.184 514.696 432.264 516.168 433.352C517.704 434.44 519.976 434.984 522.984 434.984V437C521.512 436.936 519.368 436.872 516.552 436.808C513.736 436.68 510.792 436.616 507.72 436.616C505.16 436.616 502.568 436.68 499.944 436.808C497.32 436.872 495.336 436.936 493.992 437V434.984C496.232 434.984 497.8 434.504 498.696 433.544C499.656 432.584 500.136 430.76 500.136 428.072V397.832C500.136 394.952 499.688 392.84 498.792 391.496C497.96 390.088 496.36 389.384 493.992 389.384V387.368C496.04 387.56 498.024 387.656 499.944 387.656C502.632 387.656 505.128 387.56 507.432 387.368C509.8 387.112 511.976 386.76 513.96 386.312V395.24C514.728 393.512 515.752 391.944 517.031 390.536C518.312 389.128 519.784 388.04 521.448 387.272C523.112 386.44 524.968 386.024 527.016 386.024ZM562.26 386.024C567.892 386.024 572.308 387.688 575.508 391.016C578.708 394.344 580.308 399.784 580.308 407.336H548.724L548.532 405.512H568.212C568.276 402.376 568.084 399.496 567.636 396.872C567.188 394.184 566.484 392.04 565.524 390.44C564.564 388.84 563.284 388.04 561.684 388.04C559.444 388.04 557.524 389.448 555.924 392.264C554.388 395.08 553.46 399.752 553.14 406.28L553.428 406.856C553.364 407.624 553.3 408.424 553.236 409.256C553.236 410.088 553.236 410.952 553.236 411.848C553.236 416.264 553.844 419.848 555.06 422.6C556.34 425.352 557.94 427.368 559.859 428.648C561.78 429.864 563.732 430.472 565.716 430.472C567.06 430.472 568.436 430.28 569.844 429.896C571.316 429.448 572.788 428.68 574.26 427.592C575.732 426.44 577.108 424.84 578.388 422.792L580.116 423.368C579.348 425.8 578.132 428.168 576.468 430.472C574.804 432.776 572.692 434.664 570.132 436.136C567.572 437.608 564.5 438.344 560.916 438.344C556.564 438.344 552.724 437.416 549.396 435.56C546.068 433.704 543.444 430.888 541.523 427.112C539.668 423.336 538.74 418.536 538.74 412.712C538.74 406.76 539.732 401.8 541.716 397.832C543.764 393.864 546.548 390.92 550.068 389C553.652 387.016 557.716 386.024 562.26 386.024ZM599.115 437.672C596.235 437.672 593.835 437.128 591.915 436.04C589.995 434.952 588.587 433.512 587.691 431.72C586.795 429.864 586.347 427.848 586.347 425.672C586.347 422.92 586.955 420.68 588.171 418.952C589.451 417.224 591.083 415.816 593.067 414.728C595.051 413.64 597.131 412.744 599.307 412.04C601.547 411.336 603.659 410.664 605.643 410.024C607.691 409.32 609.323 408.52 610.539 407.624C611.819 406.664 612.459 405.448 612.459 403.976V396.488C612.459 394.824 612.171 393.352 611.595 392.072C611.083 390.728 610.251 389.704 609.099 389C608.011 388.296 606.571 387.944 604.779 387.944C603.499 387.944 602.219 388.136 600.939 388.52C599.659 388.84 598.603 389.416 597.771 390.248C599.563 390.888 600.939 391.88 601.899 393.224C602.923 394.504 603.435 395.976 603.435 397.64C603.435 399.816 602.667 401.544 601.131 402.824C599.659 404.104 597.899 404.744 595.851 404.744C593.547 404.744 591.787 404.04 590.571 402.632C589.419 401.16 588.843 399.4 588.843 397.352C588.843 395.496 589.291 393.96 590.187 392.744C591.147 391.528 592.459 390.376 594.123 389.288C595.915 388.264 598.059 387.464 600.555 386.888C603.115 386.312 605.867 386.024 608.811 386.024C611.755 386.024 614.411 386.344 616.779 386.984C619.147 387.56 621.131 388.648 622.731 390.248C624.203 391.72 625.163 393.544 625.611 395.72C626.059 397.832 626.283 400.52 626.283 403.784V429.896C626.283 431.496 626.443 432.616 626.763 433.256C627.083 433.832 627.627 434.12 628.395 434.12C628.971 434.12 629.515 433.96 630.027 433.64C630.603 433.32 631.211 432.936 631.851 432.488L632.811 434.12C631.467 435.272 629.899 436.168 628.107 436.808C626.379 437.384 624.427 437.672 622.251 437.672C619.883 437.672 617.995 437.352 616.587 436.712C615.179 436.008 614.155 435.08 613.515 433.928C612.939 432.776 612.651 431.432 612.651 429.896C611.115 432.328 609.259 434.248 607.083 435.656C604.907 437 602.251 437.672 599.115 437.672ZM605.931 431.528C607.211 431.528 608.363 431.24 609.387 430.664C610.475 430.024 611.499 429 612.459 427.592V407.912C611.883 408.872 611.083 409.736 610.059 410.504C609.035 411.272 607.947 412.072 606.795 412.904C605.643 413.672 604.523 414.536 603.435 415.496C602.411 416.456 601.579 417.64 600.939 419.048C600.299 420.456 599.979 422.152 599.979 424.136C599.979 426.632 600.523 428.488 601.611 429.704C602.699 430.92 604.139 431.528 605.931 431.528ZM655.042 371.624V387.368H666.37V389.288H655.042V428.072C655.042 429.992 655.394 431.368 656.098 432.2C656.802 432.968 657.858 433.352 659.266 433.352C660.418 433.352 661.57 432.936 662.722 432.104C663.874 431.208 664.898 429.704 665.794 427.592L667.426 428.456C666.402 431.336 664.834 433.704 662.722 435.56C660.674 437.416 657.858 438.344 654.274 438.344C652.162 438.344 650.306 438.056 648.706 437.48C647.106 436.968 645.762 436.168 644.674 435.08C643.266 433.672 642.338 431.944 641.89 429.896C641.442 427.784 641.218 425.064 641.218 421.736V389.288H633.154V387.368H641.218V374.696C643.906 374.696 646.37 374.472 648.61 374.024C650.914 373.512 653.058 372.712 655.042 371.624ZM693.697 386.024C699.329 386.024 703.745 387.688 706.945 391.016C710.145 394.344 711.745 399.784 711.745 407.336H680.161L679.969 405.512H699.649C699.713 402.376 699.521 399.496 699.073 396.872C698.625 394.184 697.921 392.04 696.961 390.44C696.001 388.84 694.721 388.04 693.121 388.04C690.881 388.04 688.961 389.448 687.361 392.264C685.825 395.08 684.897 399.752 684.577 406.28L684.865 406.856C684.801 407.624 684.737 408.424 684.673 409.256C684.673 410.088 684.673 410.952 684.673 411.848C684.673 416.264 685.281 419.848 686.497 422.6C687.777 425.352 689.377 427.368 691.297 428.648C693.217 429.864 695.169 430.472 697.153 430.472C698.497 430.472 699.873 430.28 701.281 429.896C702.753 429.448 704.225 428.68 705.697 427.592C707.169 426.44 708.545 424.84 709.825 422.792L711.553 423.368C710.785 425.8 709.569 428.168 707.905 430.472C706.241 432.776 704.129 434.664 701.569 436.136C699.009 437.608 695.937 438.344 692.353 438.344C688.001 438.344 684.161 437.416 680.833 435.56C677.505 433.704 674.881 430.888 672.961 427.112C671.105 423.336 670.177 418.536 670.177 412.712C670.177 406.76 671.169 401.8 673.153 397.832C675.201 393.864 677.985 390.92 681.505 389C685.089 387.016 689.153 386.024 693.697 386.024Z" fill="#1F1F1F" />
    <path d="M604.624 473.032C604.368 475.912 604.176 478.696 604.048 481.384C603.984 484.072 603.952 486.152 603.952 487.624C603.952 489.032 603.984 490.376 604.048 491.656C604.112 492.936 604.176 494.024 604.24 494.92H602.032C601.2 489.928 600.048 486.024 598.576 483.208C597.104 480.328 595.28 478.28 593.104 477.064C590.992 475.848 588.464 475.24 585.52 475.24H582.352C580.496 475.24 579.088 475.4 578.128 475.72C577.168 476.04 576.528 476.68 576.208 477.64C575.888 478.6 575.728 480.072 575.728 482.056V530.248C575.728 532.744 575.984 534.6 576.496 535.816C577.008 537.032 578 537.832 579.472 538.216C580.944 538.6 583.12 538.824 586 538.888V541C584.016 540.936 581.456 540.872 578.32 540.808C575.184 540.744 571.888 540.712 568.432 540.712C565.68 540.712 562.992 540.744 560.368 540.808C557.744 540.872 555.376 540.936 553.264 541V539.08C555.312 538.952 556.848 538.696 557.872 538.312C558.896 537.928 559.568 537.16 559.888 536.008C560.272 534.856 560.464 533.128 560.464 530.824V483.208C560.464 480.84 560.272 479.112 559.888 478.024C559.568 476.872 558.864 476.104 557.776 475.72C556.752 475.272 555.248 475.016 553.264 474.952V473.032C555.888 473.096 558.672 473.16 561.616 473.224C564.56 473.224 567.472 473.256 570.352 473.32C573.232 473.32 575.92 473.32 578.416 473.32C580.912 473.32 582.96 473.32 584.56 473.32C587.504 473.32 590.832 473.32 594.544 473.32C598.32 473.256 601.68 473.16 604.624 473.032ZM590.32 506.248C590.32 506.248 590.32 506.568 590.32 507.208C590.32 507.848 590.32 508.168 590.32 508.168H572.848C572.848 508.168 572.848 507.848 572.848 507.208C572.848 506.568 572.848 506.248 572.848 506.248H590.32ZM592.72 493.576C592.464 497.224 592.336 500.008 592.336 501.928C592.4 503.848 592.432 505.608 592.432 507.208C592.432 508.808 592.464 510.568 592.528 512.488C592.592 514.408 592.752 517.192 593.008 520.84H590.8C590.416 518.6 589.808 516.52 588.976 514.6C588.144 512.68 586.928 511.144 585.328 509.992C583.728 508.776 581.648 508.168 579.088 508.168V506.248C581.008 506.248 582.608 505.864 583.888 505.096C585.232 504.264 586.352 503.208 587.248 501.928C588.144 500.584 588.848 499.176 589.36 497.704C589.872 496.232 590.256 494.856 590.512 493.576H592.72ZM631.447 490.024C636.119 490.024 640.215 490.888 643.735 492.616C647.255 494.344 650.007 497.128 651.991 500.968C653.975 504.808 654.967 509.896 654.967 516.232C654.967 522.568 653.975 527.656 651.991 531.496C650.007 535.272 647.255 538.024 643.735 539.752C640.215 541.48 636.119 542.344 631.447 542.344C626.903 542.344 622.839 541.48 619.255 539.752C615.735 538.024 612.951 535.272 610.903 531.496C608.919 527.656 607.927 522.568 607.927 516.232C607.927 509.896 608.919 504.808 610.903 500.968C612.951 497.128 615.735 494.344 619.255 492.616C622.839 490.888 626.903 490.024 631.447 490.024ZM631.447 491.944C628.887 491.944 626.743 493.864 625.015 497.704C623.287 501.48 622.423 507.656 622.423 516.232C622.423 524.808 623.287 530.984 625.015 534.76C626.743 538.536 628.887 540.424 631.447 540.424C634.071 540.424 636.215 538.536 637.879 534.76C639.607 530.984 640.471 524.808 640.471 516.232C640.471 507.656 639.607 501.48 637.879 497.704C636.215 493.864 634.071 491.944 631.447 491.944ZM693.984 490.024C696.032 490.024 697.696 490.472 698.976 491.368C700.256 492.2 701.184 493.288 701.76 494.632C702.4 495.976 702.72 497.384 702.72 498.856C702.72 501.224 702.016 503.176 700.608 504.712C699.264 506.184 697.472 506.92 695.232 506.92C692.992 506.92 691.232 506.376 689.952 505.288C688.736 504.136 688.128 502.632 688.128 500.776C688.128 498.984 688.512 497.512 689.28 496.36C690.112 495.144 691.136 494.12 692.352 493.288C691.456 493.032 690.56 493.064 689.664 493.384C688.448 493.576 687.296 494.088 686.208 494.92C685.12 495.688 684.192 496.68 683.424 497.896C682.656 499.048 682.048 500.328 681.6 501.736C681.152 503.08 680.928 504.392 680.928 505.672V531.112C680.928 534.184 681.664 536.264 683.136 537.352C684.672 538.44 686.944 538.984 689.952 538.984V541C688.48 540.936 686.336 540.872 683.52 540.808C680.704 540.68 677.76 540.616 674.688 540.616C672.128 540.616 669.536 540.68 666.912 540.808C664.288 540.872 662.304 540.936 660.96 541V538.984C663.2 538.984 664.768 538.504 665.664 537.544C666.624 536.584 667.104 534.76 667.104 532.072V501.832C667.104 498.952 666.656 496.84 665.76 495.496C664.928 494.088 663.328 493.384 660.96 493.384V491.368C663.008 491.56 664.992 491.656 666.912 491.656C669.6 491.656 672.096 491.56 674.4 491.368C676.768 491.112 678.944 490.76 680.928 490.312V499.24C681.696 497.512 682.72 495.944 684 494.536C685.28 493.128 686.752 492.04 688.416 491.272C690.08 490.44 691.936 490.024 693.984 490.024Z" fill="#1F1F1F" />
    <path d="M158.104 1209.12L189.208 1289.25C190.403 1292.32 191.725 1294.45 193.176 1295.65C194.712 1296.76 196.077 1297.35 197.272 1297.44V1300C194.712 1299.83 191.683 1299.74 188.184 1299.74C184.771 1299.66 181.315 1299.62 177.816 1299.62C173.891 1299.62 170.179 1299.66 166.68 1299.74C163.181 1299.74 160.408 1299.83 158.36 1300V1297.44C162.712 1297.27 165.443 1296.54 166.552 1295.26C167.747 1293.9 167.491 1291.04 165.784 1286.69L144.024 1227.17L146.328 1223.84L126.872 1274.53C124.995 1279.22 123.843 1283.06 123.416 1286.05C123.075 1289.03 123.288 1291.34 124.056 1292.96C124.909 1294.58 126.232 1295.73 128.024 1296.42C129.901 1297.01 132.12 1297.35 134.68 1297.44V1300C131.864 1299.83 129.176 1299.74 126.616 1299.74C124.056 1299.66 121.453 1299.62 118.808 1299.62C116.931 1299.62 115.139 1299.66 113.432 1299.74C111.811 1299.74 110.36 1299.83 109.08 1300V1297.44C110.872 1297.1 112.707 1295.95 114.584 1293.98C116.461 1292.02 118.296 1288.69 120.088 1284L149.272 1209.12C150.637 1209.21 152.088 1209.25 153.624 1209.25C155.245 1209.25 156.739 1209.21 158.104 1209.12ZM167.064 1263.14V1265.7H128.92L130.2 1263.14H167.064ZM225.431 1212.83V1233.82H240.535V1236.38H225.431V1288.1C225.431 1290.66 225.9 1292.49 226.839 1293.6C227.778 1294.62 229.186 1295.14 231.063 1295.14C232.599 1295.14 234.135 1294.58 235.671 1293.47C237.207 1292.28 238.572 1290.27 239.767 1287.46L241.943 1288.61C240.578 1292.45 238.487 1295.61 235.671 1298.08C232.94 1300.55 229.186 1301.79 224.407 1301.79C221.591 1301.79 219.116 1301.41 216.983 1300.64C214.85 1299.96 213.058 1298.89 211.607 1297.44C209.73 1295.56 208.492 1293.26 207.895 1290.53C207.298 1287.71 206.999 1284.09 206.999 1279.65V1236.38H196.247V1233.82H206.999V1216.93C210.583 1216.93 213.868 1216.63 216.855 1216.03C219.927 1215.35 222.786 1214.28 225.431 1212.83Z" fill="#1F1F1F" />
    <path d="M212.352 1311.71C217.387 1311.71 221.269 1312.27 224 1313.38C226.731 1314.4 229.077 1315.51 231.04 1316.7C232.064 1317.3 232.875 1317.77 233.472 1318.11C234.155 1318.37 234.795 1318.5 235.392 1318.5C236.245 1318.5 236.843 1318.03 237.184 1317.09C237.611 1316.15 237.952 1314.74 238.208 1312.86H241.152C241.067 1314.49 240.939 1316.45 240.768 1318.75C240.683 1320.97 240.597 1323.91 240.512 1327.58C240.512 1331.25 240.512 1336.07 240.512 1342.05H237.568C237.227 1337.61 236.203 1333.3 234.496 1329.12C232.789 1324.94 230.357 1321.53 227.2 1318.88C224.128 1316.15 220.331 1314.78 215.808 1314.78C211.712 1314.78 208.341 1315.94 205.696 1318.24C203.051 1320.54 201.728 1323.74 201.728 1327.84C201.728 1331.25 202.581 1334.2 204.288 1336.67C205.995 1339.06 208.469 1341.41 211.712 1343.71C215.04 1346.02 219.051 1348.79 223.744 1352.03C227.84 1354.68 231.509 1357.32 234.752 1359.97C237.995 1362.61 240.597 1365.6 242.56 1368.93C244.523 1372.26 245.504 1376.22 245.504 1380.83C245.504 1386.46 244.011 1391.11 241.024 1394.78C238.123 1398.45 234.283 1401.23 229.504 1403.1C224.725 1404.9 219.477 1405.79 213.76 1405.79C208.469 1405.79 204.245 1405.28 201.088 1404.26C197.931 1403.23 195.285 1402.17 193.152 1401.06C191.275 1399.86 189.824 1399.26 188.8 1399.26C187.947 1399.26 187.307 1399.73 186.88 1400.67C186.539 1401.61 186.24 1403.02 185.984 1404.9H183.04C183.211 1402.85 183.296 1400.46 183.296 1397.73C183.381 1395 183.424 1391.46 183.424 1387.1C183.509 1382.67 183.552 1377.08 183.552 1370.34H186.496C186.837 1375.97 187.776 1381.26 189.312 1386.21C190.933 1391.07 193.365 1395 196.608 1397.98C199.936 1400.97 204.331 1402.46 209.792 1402.46C212.779 1402.46 215.424 1401.95 217.728 1400.93C220.117 1399.82 222.037 1398.2 223.488 1396.06C224.939 1393.93 225.664 1391.29 225.664 1388.13C225.664 1384.54 224.811 1381.43 223.104 1378.78C221.483 1376.14 219.221 1373.66 216.32 1371.36C213.504 1369.06 210.219 1366.71 206.464 1364.32C202.453 1361.67 198.699 1359.03 195.2 1356.38C191.701 1353.74 188.885 1350.71 186.752 1347.3C184.704 1343.88 183.68 1339.83 183.68 1335.14C183.68 1329.76 185.003 1325.37 187.648 1321.95C190.379 1318.45 193.92 1315.89 198.272 1314.27C202.709 1312.57 207.403 1311.71 212.352 1311.71ZM279.806 1316.83V1337.82H294.91V1340.38H279.806V1392.1C279.806 1394.66 280.275 1396.49 281.214 1397.6C282.153 1398.62 283.561 1399.14 285.438 1399.14C286.974 1399.14 288.51 1398.58 290.046 1397.47C291.582 1396.28 292.947 1394.27 294.142 1391.46L296.318 1392.61C294.953 1396.45 292.862 1399.61 290.046 1402.08C287.315 1404.55 283.561 1405.79 278.782 1405.79C275.966 1405.79 273.491 1405.41 271.358 1404.64C269.225 1403.96 267.433 1402.89 265.982 1401.44C264.105 1399.56 262.867 1397.26 262.27 1394.53C261.673 1391.71 261.374 1388.09 261.374 1383.65V1340.38H250.622V1337.82H261.374V1320.93C264.958 1320.93 268.243 1320.63 271.23 1320.03C274.302 1319.35 277.161 1318.28 279.806 1316.83ZM316.486 1404.9C312.646 1404.9 309.446 1404.17 306.886 1402.72C304.326 1401.27 302.449 1399.35 301.254 1396.96C300.059 1394.49 299.462 1391.8 299.462 1388.9C299.462 1385.23 300.273 1382.24 301.894 1379.94C303.601 1377.63 305.777 1375.75 308.422 1374.3C311.067 1372.85 313.841 1371.66 316.742 1370.72C319.729 1369.78 322.545 1368.89 325.19 1368.03C327.921 1367.09 330.097 1366.03 331.718 1364.83C333.425 1363.55 334.278 1361.93 334.278 1359.97V1349.98C334.278 1347.77 333.894 1345.8 333.126 1344.1C332.443 1342.3 331.334 1340.94 329.798 1340C328.347 1339.06 326.427 1338.59 324.038 1338.59C322.331 1338.59 320.625 1338.85 318.918 1339.36C317.211 1339.79 315.803 1340.55 314.694 1341.66C317.083 1342.52 318.918 1343.84 320.198 1345.63C321.563 1347.34 322.246 1349.3 322.246 1351.52C322.246 1354.42 321.222 1356.73 319.174 1358.43C317.211 1360.14 314.865 1360.99 312.134 1360.99C309.062 1360.99 306.715 1360.05 305.094 1358.18C303.558 1356.21 302.79 1353.87 302.79 1351.14C302.79 1348.66 303.387 1346.61 304.582 1344.99C305.862 1343.37 307.611 1341.83 309.83 1340.38C312.219 1339.02 315.078 1337.95 318.406 1337.18C321.819 1336.42 325.489 1336.03 329.414 1336.03C333.339 1336.03 336.881 1336.46 340.038 1337.31C343.195 1338.08 345.841 1339.53 347.974 1341.66C349.937 1343.63 351.217 1346.06 351.814 1348.96C352.411 1351.78 352.71 1355.36 352.71 1359.71V1394.53C352.71 1396.66 352.923 1398.15 353.35 1399.01C353.777 1399.78 354.502 1400.16 355.526 1400.16C356.294 1400.16 357.019 1399.95 357.702 1399.52C358.47 1399.09 359.281 1398.58 360.134 1397.98L361.414 1400.16C359.622 1401.7 357.531 1402.89 355.142 1403.74C352.838 1404.51 350.235 1404.9 347.334 1404.9C344.177 1404.9 341.659 1404.47 339.782 1403.62C337.905 1402.68 336.539 1401.44 335.686 1399.9C334.918 1398.37 334.534 1396.58 334.534 1394.53C332.486 1397.77 330.011 1400.33 327.11 1402.21C324.209 1404 320.667 1404.9 316.486 1404.9ZM325.574 1396.7C327.281 1396.7 328.817 1396.32 330.182 1395.55C331.633 1394.7 332.998 1393.33 334.278 1391.46V1365.22C333.51 1366.5 332.443 1367.65 331.078 1368.67C329.713 1369.7 328.262 1370.76 326.726 1371.87C325.19 1372.9 323.697 1374.05 322.246 1375.33C320.881 1376.61 319.771 1378.19 318.918 1380.06C318.065 1381.94 317.638 1384.2 317.638 1386.85C317.638 1390.18 318.363 1392.65 319.814 1394.27C321.265 1395.89 323.185 1396.7 325.574 1396.7ZM409.104 1336.03C411.835 1336.03 414.053 1336.63 415.76 1337.82C417.467 1338.93 418.704 1340.38 419.472 1342.18C420.325 1343.97 420.752 1345.85 420.752 1347.81C420.752 1350.97 419.813 1353.57 417.936 1355.62C416.144 1357.58 413.755 1358.56 410.768 1358.56C407.781 1358.56 405.435 1357.83 403.728 1356.38C402.107 1354.85 401.296 1352.84 401.296 1350.37C401.296 1347.98 401.808 1346.02 402.832 1344.48C403.941 1342.86 405.307 1341.49 406.928 1340.38C405.733 1340.04 404.539 1340.09 403.344 1340.51C401.723 1340.77 400.187 1341.45 398.736 1342.56C397.285 1343.58 396.048 1344.91 395.024 1346.53C394 1348.06 393.189 1349.77 392.592 1351.65C391.995 1353.44 391.696 1355.19 391.696 1356.9V1390.82C391.696 1394.91 392.677 1397.69 394.64 1399.14C396.688 1400.59 399.717 1401.31 403.728 1401.31V1404C401.765 1403.91 398.907 1403.83 395.152 1403.74C391.397 1403.57 387.472 1403.49 383.376 1403.49C379.963 1403.49 376.507 1403.57 373.008 1403.74C369.509 1403.83 366.864 1403.91 365.072 1404V1401.31C368.059 1401.31 370.149 1400.67 371.344 1399.39C372.624 1398.11 373.264 1395.68 373.264 1392.1V1351.78C373.264 1347.94 372.667 1345.12 371.472 1343.33C370.363 1341.45 368.229 1340.51 365.072 1340.51V1337.82C367.803 1338.08 370.448 1338.21 373.008 1338.21C376.592 1338.21 379.92 1338.08 382.992 1337.82C386.149 1337.48 389.051 1337.01 391.696 1336.42V1348.32C392.72 1346.02 394.085 1343.93 395.792 1342.05C397.499 1340.17 399.461 1338.72 401.68 1337.7C403.899 1336.59 406.373 1336.03 409.104 1336.03ZM447.556 1303.78V1392.1C447.556 1395.68 448.111 1398.11 449.22 1399.39C450.415 1400.67 452.42 1401.31 455.236 1401.31V1404C453.615 1403.91 451.225 1403.83 448.068 1403.74C444.996 1403.57 441.839 1403.49 438.596 1403.49C435.268 1403.49 431.897 1403.57 428.484 1403.74C425.156 1403.83 422.639 1403.91 420.932 1404V1401.31C423.919 1401.31 426.009 1400.67 427.204 1399.39C428.484 1398.11 429.124 1395.68 429.124 1392.1V1319.14C429.124 1315.3 428.527 1312.48 427.332 1310.69C426.223 1308.81 424.089 1307.87 420.932 1307.87V1305.18C423.663 1305.44 426.308 1305.57 428.868 1305.57C432.367 1305.57 435.695 1305.44 438.852 1305.18C442.009 1304.84 444.911 1304.37 447.556 1303.78ZM489.284 1337.82V1340.38C486.639 1340.9 483.993 1342.01 481.348 1343.71C478.703 1345.42 476.015 1347.59 473.284 1350.24L463.428 1360.48L464.708 1358.05L486.596 1394.66C487.535 1396.19 488.516 1397.56 489.54 1398.75C490.564 1399.95 491.801 1400.8 493.252 1401.31V1404C491.972 1403.91 490.052 1403.83 487.492 1403.74C484.932 1403.57 482.372 1403.49 479.812 1403.49C476.655 1403.49 473.497 1403.57 470.34 1403.74C467.183 1403.83 464.836 1403.91 463.3 1404V1401.31C465.007 1401.31 466.159 1400.93 466.756 1400.16C467.353 1399.31 467.268 1398.24 466.5 1396.96L453.828 1374.05C452.804 1372.43 451.78 1371.4 450.756 1370.98C449.817 1370.46 448.537 1370.17 446.916 1370.08V1367.65C448.708 1367.48 450.244 1367.18 451.524 1366.75C452.889 1366.33 454.127 1365.51 455.236 1364.32L464.964 1354.85C467.865 1352.12 469.316 1349.69 469.316 1347.55C469.316 1345.42 468.377 1343.71 466.5 1342.43C464.708 1341.15 462.319 1340.47 459.332 1340.38V1337.82C461.721 1337.91 464.324 1337.99 467.14 1338.08C469.956 1338.17 472.345 1338.21 474.308 1338.21C476.015 1338.21 477.807 1338.21 479.684 1338.21C481.647 1338.12 483.481 1338.08 485.188 1338.08C486.895 1337.99 488.26 1337.91 489.284 1337.82Z" fill="#1F1F1F" />
    <path d="M276.352 1417.71C281.387 1417.71 285.269 1418.27 288 1419.38C290.731 1420.4 293.077 1421.51 295.04 1422.7C296.064 1423.3 296.875 1423.77 297.472 1424.11C298.155 1424.37 298.795 1424.5 299.392 1424.5C300.245 1424.5 300.843 1424.03 301.184 1423.09C301.611 1422.15 301.952 1420.74 302.208 1418.86H305.152C305.067 1420.49 304.939 1422.45 304.768 1424.75C304.683 1426.97 304.597 1429.91 304.512 1433.58C304.512 1437.25 304.512 1442.07 304.512 1448.05H301.568C301.227 1443.61 300.203 1439.3 298.496 1435.12C296.789 1430.94 294.357 1427.53 291.2 1424.88C288.128 1422.15 284.331 1420.78 279.808 1420.78C275.712 1420.78 272.341 1421.94 269.696 1424.24C267.051 1426.54 265.728 1429.74 265.728 1433.84C265.728 1437.25 266.581 1440.2 268.288 1442.67C269.995 1445.06 272.469 1447.41 275.712 1449.71C279.04 1452.02 283.051 1454.79 287.744 1458.03C291.84 1460.68 295.509 1463.32 298.752 1465.97C301.995 1468.61 304.597 1471.6 306.56 1474.93C308.523 1478.26 309.504 1482.22 309.504 1486.83C309.504 1492.46 308.011 1497.11 305.024 1500.78C302.123 1504.45 298.283 1507.23 293.504 1509.1C288.725 1510.9 283.477 1511.79 277.76 1511.79C272.469 1511.79 268.245 1511.28 265.088 1510.26C261.931 1509.23 259.285 1508.17 257.152 1507.06C255.275 1505.86 253.824 1505.26 252.8 1505.26C251.947 1505.26 251.307 1505.73 250.88 1506.67C250.539 1507.61 250.24 1509.02 249.984 1510.9H247.04C247.211 1508.85 247.296 1506.46 247.296 1503.73C247.381 1501 247.424 1497.46 247.424 1493.1C247.509 1488.67 247.552 1483.08 247.552 1476.34H250.496C250.837 1481.97 251.776 1487.26 253.312 1492.21C254.933 1497.07 257.365 1501 260.608 1503.98C263.936 1506.97 268.331 1508.46 273.792 1508.46C276.779 1508.46 279.424 1507.95 281.728 1506.93C284.117 1505.82 286.037 1504.2 287.488 1502.06C288.939 1499.93 289.664 1497.29 289.664 1494.13C289.664 1490.54 288.811 1487.43 287.104 1484.78C285.483 1482.14 283.221 1479.66 280.32 1477.36C277.504 1475.06 274.219 1472.71 270.464 1470.32C266.453 1467.67 262.699 1465.03 259.2 1462.38C255.701 1459.74 252.885 1456.71 250.752 1453.3C248.704 1449.88 247.68 1445.83 247.68 1441.14C247.68 1435.76 249.003 1431.37 251.648 1427.95C254.379 1424.45 257.92 1421.89 262.272 1420.27C266.709 1418.57 271.403 1417.71 276.352 1417.71ZM343.806 1422.83V1443.82H358.91V1446.38H343.806V1498.1C343.806 1500.66 344.275 1502.49 345.214 1503.6C346.153 1504.62 347.561 1505.14 349.438 1505.14C350.974 1505.14 352.51 1504.58 354.046 1503.47C355.582 1502.28 356.947 1500.27 358.142 1497.46L360.318 1498.61C358.953 1502.45 356.862 1505.61 354.046 1508.08C351.315 1510.55 347.561 1511.79 342.782 1511.79C339.966 1511.79 337.491 1511.41 335.358 1510.64C333.225 1509.96 331.433 1508.89 329.982 1507.44C328.105 1505.56 326.867 1503.26 326.27 1500.53C325.673 1497.71 325.374 1494.09 325.374 1489.65V1446.38H314.622V1443.82H325.374V1426.93C328.958 1426.93 332.243 1426.63 335.23 1426.03C338.302 1425.35 341.161 1424.28 343.806 1422.83ZM426.566 1442.42V1496.05C426.566 1499.89 427.163 1502.75 428.358 1504.62C429.553 1506.42 431.686 1507.31 434.758 1507.31V1510C432.113 1509.74 429.467 1509.62 426.822 1509.62C423.238 1509.62 419.91 1509.74 416.838 1510C413.766 1510.26 410.865 1510.73 408.134 1511.41V1499.89C406.086 1504.15 403.227 1507.23 399.558 1509.1C395.974 1510.9 391.963 1511.79 387.526 1511.79C383.942 1511.79 381.041 1511.32 378.822 1510.38C376.603 1509.45 374.854 1508.25 373.574 1506.8C372.123 1505.18 371.099 1503.05 370.502 1500.4C369.905 1497.75 369.606 1494.34 369.606 1490.16V1457.78C369.606 1453.94 369.009 1451.12 367.814 1449.33C366.705 1447.45 364.571 1446.51 361.414 1446.51V1443.82C364.145 1444.08 366.79 1444.21 369.35 1444.21C372.934 1444.21 376.262 1444.08 379.334 1443.82C382.491 1443.48 385.393 1443.01 388.038 1442.42V1495.41C388.038 1497.54 388.209 1499.42 388.55 1501.04C388.977 1502.66 389.745 1503.94 390.854 1504.88C391.963 1505.73 393.585 1506.16 395.718 1506.16C398.022 1506.16 400.07 1505.52 401.862 1504.24C403.739 1502.96 405.233 1501.21 406.342 1498.99C407.537 1496.69 408.134 1494.13 408.134 1491.31V1457.78C408.134 1453.94 407.537 1451.12 406.342 1449.33C405.233 1447.45 403.099 1446.51 399.942 1446.51V1443.82C402.673 1444.08 405.318 1444.21 407.878 1444.21C411.462 1444.21 414.79 1444.08 417.862 1443.82C421.019 1443.48 423.921 1443.01 426.566 1442.42ZM503.423 1409.78V1495.92C503.423 1499.76 504.02 1502.62 505.215 1504.5C506.41 1506.29 508.543 1507.18 511.615 1507.18V1509.87C508.97 1509.62 506.324 1509.49 503.679 1509.49C500.095 1509.49 496.724 1509.62 493.567 1509.87C490.495 1510.13 487.636 1510.6 484.991 1511.28V1425.14C484.991 1421.3 484.394 1418.48 483.199 1416.69C482.09 1414.81 479.956 1413.87 476.799 1413.87V1411.18C479.53 1411.44 482.175 1411.57 484.735 1411.57C488.234 1411.57 491.562 1411.44 494.719 1411.18C497.876 1410.84 500.778 1410.37 503.423 1409.78ZM470.783 1442.03C474.538 1442.03 477.823 1442.67 480.639 1443.95C483.54 1445.15 485.802 1447.19 487.423 1450.1L485.887 1451.5C484.778 1449.46 483.284 1448.01 481.407 1447.15C479.615 1446.21 477.695 1445.74 475.647 1445.74C471.295 1445.74 467.839 1448.3 465.279 1453.42C462.719 1458.46 461.482 1466.27 461.567 1476.85C461.567 1484.1 462.036 1489.9 462.975 1494.26C463.999 1498.52 465.407 1501.59 467.199 1503.47C469.076 1505.35 471.21 1506.29 473.599 1506.29C476.5 1506.29 479.103 1505.14 481.407 1502.83C483.711 1500.53 484.948 1497.41 485.119 1493.49L485.759 1497.97C484.479 1502.49 482.388 1505.95 479.487 1508.34C476.671 1510.64 472.959 1511.79 468.351 1511.79C463.316 1511.79 458.794 1510.55 454.783 1508.08C450.858 1505.61 447.786 1501.81 445.567 1496.69C443.348 1491.48 442.239 1484.78 442.239 1476.59C442.239 1468.83 443.476 1462.43 445.951 1457.39C448.426 1452.27 451.796 1448.43 456.063 1445.87C460.415 1443.31 465.322 1442.03 470.783 1442.03ZM533.587 1410.8C537.171 1410.8 539.987 1411.7 542.035 1413.49C544.168 1415.19 545.235 1417.58 545.235 1420.66C545.235 1423.73 544.168 1426.16 542.035 1427.95C539.987 1429.66 537.171 1430.51 533.587 1430.51C530.003 1430.51 527.144 1429.66 525.011 1427.95C522.963 1426.16 521.939 1423.73 521.939 1420.66C521.939 1417.58 522.963 1415.19 525.011 1413.49C527.144 1411.7 530.003 1410.8 533.587 1410.8ZM543.571 1442.42V1498.1C543.571 1501.68 544.168 1504.11 545.363 1505.39C546.643 1506.67 548.776 1507.31 551.763 1507.31V1510C550.227 1509.91 547.838 1509.83 544.595 1509.74C541.352 1509.57 538.067 1509.49 534.739 1509.49C531.411 1509.49 528.04 1509.57 524.627 1509.74C521.214 1509.83 518.654 1509.91 516.947 1510V1507.31C519.934 1507.31 522.024 1506.67 523.219 1505.39C524.499 1504.11 525.139 1501.68 525.139 1498.1V1457.78C525.139 1453.94 524.542 1451.12 523.347 1449.33C522.238 1447.45 520.104 1446.51 516.947 1446.51V1443.82C519.678 1444.08 522.323 1444.21 524.883 1444.21C528.467 1444.21 531.795 1444.08 534.867 1443.82C538.024 1443.48 540.926 1443.01 543.571 1442.42ZM590.346 1442.03C596.575 1442.03 602.037 1443.18 606.73 1445.49C611.423 1447.79 615.093 1451.5 617.738 1456.62C620.383 1461.74 621.706 1468.53 621.706 1476.98C621.706 1485.42 620.383 1492.21 617.738 1497.33C615.093 1502.36 611.423 1506.03 606.73 1508.34C602.037 1510.64 596.575 1511.79 590.346 1511.79C584.287 1511.79 578.869 1510.64 574.09 1508.34C569.397 1506.03 565.685 1502.36 562.954 1497.33C560.309 1492.21 558.986 1485.42 558.986 1476.98C558.986 1468.53 560.309 1461.74 562.954 1456.62C565.685 1451.5 569.397 1447.79 574.09 1445.49C578.869 1443.18 584.287 1442.03 590.346 1442.03ZM590.346 1444.59C586.933 1444.59 584.074 1447.15 581.77 1452.27C579.466 1457.31 578.314 1465.54 578.314 1476.98C578.314 1488.41 579.466 1496.65 581.77 1501.68C584.074 1506.71 586.933 1509.23 590.346 1509.23C593.845 1509.23 596.703 1506.71 598.922 1501.68C601.226 1496.65 602.378 1488.41 602.378 1476.98C602.378 1465.54 601.226 1457.31 598.922 1452.27C596.703 1447.15 593.845 1444.59 590.346 1444.59Z" fill="#1F1F1F" />
    <path d="M876.328 1196.84L899.656 1256.94C900.552 1259.24 901.544 1260.84 902.632 1261.74C903.784 1262.57 904.808 1263.02 905.704 1263.08V1265C903.784 1264.87 901.512 1264.81 898.888 1264.81C896.328 1264.74 893.736 1264.71 891.112 1264.71C888.168 1264.71 885.384 1264.74 882.76 1264.81C880.136 1264.81 878.056 1264.87 876.52 1265V1263.08C879.784 1262.95 881.832 1262.41 882.664 1261.45C883.56 1260.42 883.368 1258.28 882.088 1255.02L865.768 1210.38L867.496 1207.88L852.904 1245.9C851.496 1249.42 850.632 1252.3 850.312 1254.54C850.056 1256.78 850.216 1258.5 850.792 1259.72C851.432 1260.94 852.424 1261.8 853.768 1262.31C855.176 1262.76 856.84 1263.02 858.76 1263.08V1265C856.648 1264.87 854.632 1264.81 852.712 1264.81C850.792 1264.74 848.84 1264.71 846.856 1264.71C845.448 1264.71 844.104 1264.74 842.824 1264.81C841.608 1264.81 840.52 1264.87 839.56 1265V1263.08C840.904 1262.82 842.28 1261.96 843.688 1260.49C845.096 1259.02 846.472 1256.52 847.816 1253L869.704 1196.84C870.728 1196.9 871.816 1196.94 872.968 1196.94C874.184 1196.94 875.304 1196.9 876.328 1196.84ZM883.048 1237.35V1239.27H854.44L855.4 1237.35H883.048Z" fill="#1F1F1F" />
    <path d="M950.232 1214.02C955.224 1214.02 959.352 1216.07 962.616 1220.17C965.944 1224.2 967.608 1230.44 967.608 1238.89C967.608 1245.54 966.584 1250.89 964.536 1254.92C962.552 1258.95 959.896 1261.86 956.568 1263.66C953.24 1265.45 949.592 1266.34 945.624 1266.34C943 1266.34 940.568 1265.9 938.328 1265C936.088 1264.1 934.168 1262.63 932.568 1260.58L933.912 1260.1C935.064 1261.51 936.408 1262.57 937.944 1263.27C939.544 1263.98 941.112 1264.33 942.648 1264.33C946.168 1264.33 948.792 1262.34 950.52 1258.38C952.248 1254.41 953.112 1248.36 953.112 1240.23C953.112 1234.73 952.76 1230.38 952.056 1227.18C951.416 1223.91 950.456 1221.61 949.176 1220.26C947.896 1218.86 946.36 1218.15 944.568 1218.15C942.328 1218.15 940.28 1219.08 938.424 1220.94C936.568 1222.73 935.512 1225.26 935.256 1228.52L934.776 1225.16C935.928 1221.51 937.88 1218.76 940.632 1216.9C943.384 1214.98 946.584 1214.02 950.232 1214.02ZM935.544 1189.93V1263.08C933.944 1262.82 932.312 1262.82 930.648 1263.08C928.984 1263.34 927.448 1263.78 926.04 1264.42C924.632 1265 923.448 1265.7 922.488 1266.54L921.048 1265.67C921.304 1264.78 921.464 1263.88 921.528 1262.98C921.656 1262.09 921.72 1261.19 921.72 1260.3V1201.45C921.72 1198.57 921.272 1196.46 920.376 1195.11C919.544 1193.7 917.944 1193 915.576 1193V1190.98C917.624 1191.18 919.608 1191.27 921.528 1191.27C924.152 1191.27 926.648 1191.18 929.016 1190.98C931.384 1190.73 933.56 1190.38 935.544 1189.93ZM998.322 1214.02C1003.95 1214.02 1008.37 1215.69 1011.57 1219.02C1014.77 1222.34 1016.37 1227.78 1016.37 1235.34H984.786L984.594 1233.51H1004.27C1004.34 1230.38 1004.15 1227.5 1003.7 1224.87C1003.25 1222.18 1002.55 1220.04 1001.59 1218.44C1000.63 1216.84 999.346 1216.04 997.746 1216.04C995.506 1216.04 993.586 1217.45 991.986 1220.26C990.45 1223.08 989.522 1227.75 989.202 1234.28L989.49 1234.86C989.426 1235.62 989.362 1236.42 989.298 1237.26C989.298 1238.09 989.298 1238.95 989.298 1239.85C989.298 1244.26 989.906 1247.85 991.122 1250.6C992.402 1253.35 994.002 1255.37 995.922 1256.65C997.842 1257.86 999.794 1258.47 1001.78 1258.47C1003.12 1258.47 1004.5 1258.28 1005.91 1257.9C1007.38 1257.45 1008.85 1256.68 1010.32 1255.59C1011.79 1254.44 1013.17 1252.84 1014.45 1250.79L1016.18 1251.37C1015.41 1253.8 1014.19 1256.17 1012.53 1258.47C1010.87 1260.78 1008.75 1262.66 1006.19 1264.14C1003.63 1265.61 1000.56 1266.34 996.978 1266.34C992.626 1266.34 988.786 1265.42 985.458 1263.56C982.13 1261.7 979.506 1258.89 977.586 1255.11C975.73 1251.34 974.802 1246.54 974.802 1240.71C974.802 1234.76 975.794 1229.8 977.778 1225.83C979.826 1221.86 982.61 1218.92 986.13 1217C989.714 1215.02 993.778 1214.02 998.322 1214.02ZM1041.42 1199.62V1215.37H1052.75V1217.29H1041.42V1256.07C1041.42 1257.99 1041.77 1259.37 1042.47 1260.2C1043.18 1260.97 1044.23 1261.35 1045.64 1261.35C1046.79 1261.35 1047.95 1260.94 1049.1 1260.1C1050.25 1259.21 1051.27 1257.7 1052.17 1255.59L1053.8 1256.46C1052.78 1259.34 1051.21 1261.7 1049.1 1263.56C1047.05 1265.42 1044.23 1266.34 1040.65 1266.34C1038.54 1266.34 1036.68 1266.06 1035.08 1265.48C1033.48 1264.97 1032.14 1264.17 1031.05 1263.08C1029.64 1261.67 1028.71 1259.94 1028.27 1257.9C1027.82 1255.78 1027.59 1253.06 1027.59 1249.74V1217.29H1019.53V1215.37H1027.59V1202.7C1030.28 1202.7 1032.75 1202.47 1034.99 1202.02C1037.29 1201.51 1039.43 1200.71 1041.42 1199.62ZM1072.45 1199.62V1215.37H1083.78V1217.29H1072.45V1256.07C1072.45 1257.99 1072.8 1259.37 1073.5 1260.2C1074.21 1260.97 1075.26 1261.35 1076.67 1261.35C1077.82 1261.35 1078.98 1260.94 1080.13 1260.1C1081.28 1259.21 1082.3 1257.7 1083.2 1255.59L1084.83 1256.46C1083.81 1259.34 1082.24 1261.7 1080.13 1263.56C1078.08 1265.42 1075.26 1266.34 1071.68 1266.34C1069.57 1266.34 1067.71 1266.06 1066.11 1265.48C1064.51 1264.97 1063.17 1264.17 1062.08 1263.08C1060.67 1261.67 1059.74 1259.94 1059.3 1257.9C1058.85 1255.78 1058.62 1253.06 1058.62 1249.74V1217.29H1050.56V1215.37H1058.62V1202.7C1061.31 1202.7 1063.78 1202.47 1066.02 1202.02C1068.32 1201.51 1070.46 1200.71 1072.45 1199.62ZM1111.1 1214.02C1116.74 1214.02 1121.15 1215.69 1124.35 1219.02C1127.55 1222.34 1129.15 1227.78 1129.15 1235.34H1097.57L1097.38 1233.51H1117.06C1117.12 1230.38 1116.93 1227.5 1116.48 1224.87C1116.03 1222.18 1115.33 1220.04 1114.37 1218.44C1113.41 1216.84 1112.13 1216.04 1110.53 1216.04C1108.29 1216.04 1106.37 1217.45 1104.77 1220.26C1103.23 1223.08 1102.3 1227.75 1101.98 1234.28L1102.27 1234.86C1102.21 1235.62 1102.14 1236.42 1102.08 1237.26C1102.08 1238.09 1102.08 1238.95 1102.08 1239.85C1102.08 1244.26 1102.69 1247.85 1103.9 1250.6C1105.18 1253.35 1106.78 1255.37 1108.7 1256.65C1110.62 1257.86 1112.58 1258.47 1114.56 1258.47C1115.9 1258.47 1117.28 1258.28 1118.69 1257.9C1120.16 1257.45 1121.63 1256.68 1123.1 1255.59C1124.58 1254.44 1125.95 1252.84 1127.23 1250.79L1128.96 1251.37C1128.19 1253.8 1126.98 1256.17 1125.31 1258.47C1123.65 1260.78 1121.54 1262.66 1118.98 1264.14C1116.42 1265.61 1113.34 1266.34 1109.76 1266.34C1105.41 1266.34 1101.57 1265.42 1098.24 1263.56C1094.91 1261.7 1092.29 1258.89 1090.37 1255.11C1088.51 1251.34 1087.58 1246.54 1087.58 1240.71C1087.58 1234.76 1088.58 1229.8 1090.56 1225.83C1092.61 1221.86 1095.39 1218.92 1098.91 1217C1102.5 1215.02 1106.56 1214.02 1111.1 1214.02ZM1167.17 1214.02C1169.22 1214.02 1170.88 1214.47 1172.16 1215.37C1173.44 1216.2 1174.37 1217.29 1174.95 1218.63C1175.59 1219.98 1175.91 1221.38 1175.91 1222.86C1175.91 1225.22 1175.2 1227.18 1173.8 1228.71C1172.45 1230.18 1170.66 1230.92 1168.42 1230.92C1166.18 1230.92 1164.42 1230.38 1163.14 1229.29C1161.92 1228.14 1161.32 1226.63 1161.32 1224.78C1161.32 1222.98 1161.7 1221.51 1162.47 1220.36C1163.3 1219.14 1164.32 1218.12 1165.54 1217.29C1164.64 1217.03 1163.75 1217.06 1162.85 1217.38C1161.64 1217.58 1160.48 1218.09 1159.4 1218.92C1158.31 1219.69 1157.38 1220.68 1156.61 1221.9C1155.84 1223.05 1155.24 1224.33 1154.79 1225.74C1154.34 1227.08 1154.12 1228.39 1154.12 1229.67V1255.11C1154.12 1258.18 1154.85 1260.26 1156.32 1261.35C1157.86 1262.44 1160.13 1262.98 1163.14 1262.98V1265C1161.67 1264.94 1159.52 1264.87 1156.71 1264.81C1153.89 1264.68 1150.95 1264.62 1147.88 1264.62C1145.32 1264.62 1142.72 1264.68 1140.1 1264.81C1137.48 1264.87 1135.49 1264.94 1134.15 1265V1262.98C1136.39 1262.98 1137.96 1262.5 1138.85 1261.54C1139.81 1260.58 1140.29 1258.76 1140.29 1256.07V1225.83C1140.29 1222.95 1139.84 1220.84 1138.95 1219.5C1138.12 1218.09 1136.52 1217.38 1134.15 1217.38V1215.37C1136.2 1215.56 1138.18 1215.66 1140.1 1215.66C1142.79 1215.66 1145.28 1215.56 1147.59 1215.37C1149.96 1215.11 1152.13 1214.76 1154.12 1214.31V1223.24C1154.88 1221.51 1155.91 1219.94 1157.19 1218.54C1158.47 1217.13 1159.94 1216.04 1161.6 1215.27C1163.27 1214.44 1165.12 1214.02 1167.17 1214.02Z" fill="#1F1F1F" />
    <path d="M1012.62 1282.03C1012.37 1284.91 1012.18 1287.7 1012.05 1290.38C1011.98 1293.07 1011.95 1295.15 1011.95 1296.62C1011.95 1298.03 1011.98 1299.38 1012.05 1300.66C1012.11 1301.94 1012.18 1303.02 1012.24 1303.92H1010.03C1009.2 1298.93 1008.05 1295.02 1006.58 1292.21C1005.1 1289.33 1003.28 1287.28 1001.1 1286.06C998.992 1284.85 996.464 1284.24 993.52 1284.24H990.352C988.496 1284.24 987.088 1284.4 986.128 1284.72C985.168 1285.04 984.528 1285.68 984.208 1286.64C983.888 1287.6 983.728 1289.07 983.728 1291.06V1339.25C983.728 1341.74 983.984 1343.6 984.496 1344.82C985.008 1346.03 986 1346.83 987.472 1347.22C988.944 1347.6 991.12 1347.82 994 1347.89V1350C992.016 1349.94 989.456 1349.87 986.32 1349.81C983.184 1349.74 979.888 1349.71 976.432 1349.71C973.68 1349.71 970.992 1349.74 968.368 1349.81C965.744 1349.87 963.376 1349.94 961.264 1350V1348.08C963.312 1347.95 964.848 1347.7 965.872 1347.31C966.896 1346.93 967.568 1346.16 967.888 1345.01C968.272 1343.86 968.464 1342.13 968.464 1339.82V1292.21C968.464 1289.84 968.272 1288.11 967.888 1287.02C967.568 1285.87 966.864 1285.1 965.776 1284.72C964.752 1284.27 963.248 1284.02 961.264 1283.95V1282.03C963.888 1282.1 966.672 1282.16 969.616 1282.22C972.56 1282.22 975.472 1282.26 978.352 1282.32C981.232 1282.32 983.92 1282.32 986.416 1282.32C988.912 1282.32 990.96 1282.32 992.56 1282.32C995.504 1282.32 998.832 1282.32 1002.54 1282.32C1006.32 1282.26 1009.68 1282.16 1012.62 1282.03ZM998.32 1315.25C998.32 1315.25 998.32 1315.57 998.32 1316.21C998.32 1316.85 998.32 1317.17 998.32 1317.17H980.848C980.848 1317.17 980.848 1316.85 980.848 1316.21C980.848 1315.57 980.848 1315.25 980.848 1315.25H998.32ZM1000.72 1302.58C1000.46 1306.22 1000.34 1309.01 1000.34 1310.93C1000.4 1312.85 1000.43 1314.61 1000.43 1316.21C1000.43 1317.81 1000.46 1319.57 1000.53 1321.49C1000.59 1323.41 1000.75 1326.19 1001.01 1329.84H998.8C998.416 1327.6 997.808 1325.52 996.976 1323.6C996.144 1321.68 994.928 1320.14 993.328 1318.99C991.728 1317.78 989.648 1317.17 987.088 1317.17V1315.25C989.008 1315.25 990.608 1314.86 991.888 1314.1C993.232 1313.26 994.352 1312.21 995.248 1310.93C996.144 1309.58 996.848 1308.18 997.36 1306.7C997.872 1305.23 998.256 1303.86 998.512 1302.58H1000.72ZM1064.92 1299.31V1339.54C1064.92 1342.42 1065.37 1344.56 1066.27 1345.97C1067.16 1347.31 1068.76 1347.98 1071.07 1347.98V1350C1069.08 1349.81 1067.1 1349.71 1065.12 1349.71C1062.43 1349.71 1059.93 1349.81 1057.63 1350C1055.32 1350.19 1053.15 1350.54 1051.1 1351.06V1342.42C1049.56 1345.62 1047.42 1347.92 1044.67 1349.33C1041.98 1350.67 1038.97 1351.34 1035.64 1351.34C1032.96 1351.34 1030.78 1350.99 1029.12 1350.29C1027.45 1349.58 1026.14 1348.69 1025.18 1347.6C1024.09 1346.38 1023.32 1344.78 1022.88 1342.8C1022.43 1340.82 1022.2 1338.26 1022.2 1335.12V1310.83C1022.2 1307.95 1021.76 1305.84 1020.86 1304.5C1020.03 1303.09 1018.43 1302.38 1016.06 1302.38V1300.37C1018.11 1300.56 1020.09 1300.66 1022.01 1300.66C1024.7 1300.66 1027.2 1300.56 1029.5 1300.37C1031.87 1300.11 1034.04 1299.76 1036.03 1299.31V1339.06C1036.03 1340.66 1036.16 1342.06 1036.41 1343.28C1036.73 1344.5 1037.31 1345.46 1038.14 1346.16C1038.97 1346.8 1040.19 1347.12 1041.79 1347.12C1043.52 1347.12 1045.05 1346.64 1046.4 1345.68C1047.8 1344.72 1048.92 1343.41 1049.76 1341.74C1050.65 1340.02 1051.1 1338.1 1051.1 1335.98V1310.83C1051.1 1307.95 1050.65 1305.84 1049.76 1304.5C1048.92 1303.09 1047.32 1302.38 1044.96 1302.38V1300.37C1047 1300.56 1048.99 1300.66 1050.91 1300.66C1053.6 1300.66 1056.09 1300.56 1058.4 1300.37C1060.76 1300.11 1062.94 1299.76 1064.92 1299.31ZM1094.82 1284.62V1300.37H1106.15V1302.29H1094.82V1341.07C1094.82 1342.99 1095.18 1344.37 1095.88 1345.2C1096.58 1345.97 1097.64 1346.35 1099.05 1346.35C1100.2 1346.35 1101.35 1345.94 1102.5 1345.1C1103.66 1344.21 1104.68 1342.7 1105.58 1340.59L1107.21 1341.46C1106.18 1344.34 1104.62 1346.7 1102.5 1348.56C1100.46 1350.42 1097.64 1351.34 1094.06 1351.34C1091.94 1351.34 1090.09 1351.06 1088.49 1350.48C1086.89 1349.97 1085.54 1349.17 1084.46 1348.08C1083.05 1346.67 1082.12 1344.94 1081.67 1342.9C1081.22 1340.78 1081 1338.06 1081 1334.74V1302.29H1072.94V1300.37H1081V1287.7C1083.69 1287.7 1086.15 1287.47 1088.39 1287.02C1090.7 1286.51 1092.84 1285.71 1094.82 1284.62ZM1156.89 1299.31V1339.54C1156.89 1342.42 1157.34 1344.56 1158.24 1345.97C1159.13 1347.31 1160.73 1347.98 1163.04 1347.98V1350C1161.05 1349.81 1159.07 1349.71 1157.09 1349.71C1154.4 1349.71 1151.9 1349.81 1149.6 1350C1147.29 1350.19 1145.12 1350.54 1143.07 1351.06V1342.42C1141.53 1345.62 1139.39 1347.92 1136.64 1349.33C1133.95 1350.67 1130.94 1351.34 1127.61 1351.34C1124.93 1351.34 1122.75 1350.99 1121.09 1350.29C1119.42 1349.58 1118.11 1348.69 1117.15 1347.6C1116.06 1346.38 1115.29 1344.78 1114.85 1342.8C1114.4 1340.82 1114.17 1338.26 1114.17 1335.12V1310.83C1114.17 1307.95 1113.73 1305.84 1112.83 1304.5C1112 1303.09 1110.4 1302.38 1108.03 1302.38V1300.37C1110.08 1300.56 1112.06 1300.66 1113.98 1300.66C1116.67 1300.66 1119.17 1300.56 1121.47 1300.37C1123.84 1300.11 1126.01 1299.76 1128 1299.31V1339.06C1128 1340.66 1128.13 1342.06 1128.38 1343.28C1128.7 1344.5 1129.28 1345.46 1130.11 1346.16C1130.94 1346.8 1132.16 1347.12 1133.76 1347.12C1135.49 1347.12 1137.02 1346.64 1138.37 1345.68C1139.77 1344.72 1140.89 1343.41 1141.73 1341.74C1142.62 1340.02 1143.07 1338.1 1143.07 1335.98V1310.83C1143.07 1307.95 1142.62 1305.84 1141.73 1304.5C1140.89 1303.09 1139.29 1302.38 1136.93 1302.38V1300.37C1138.97 1300.56 1140.96 1300.66 1142.88 1300.66C1145.57 1300.66 1148.06 1300.56 1150.37 1300.37C1152.73 1300.11 1154.91 1299.76 1156.89 1299.31ZM1200.33 1299.02C1202.38 1299.02 1204.04 1299.47 1205.32 1300.37C1206.6 1301.2 1207.53 1302.29 1208.1 1303.63C1208.74 1304.98 1209.06 1306.38 1209.06 1307.86C1209.06 1310.22 1208.36 1312.18 1206.95 1313.71C1205.61 1315.18 1203.82 1315.92 1201.58 1315.92C1199.34 1315.92 1197.58 1315.38 1196.3 1314.29C1195.08 1313.14 1194.47 1311.63 1194.47 1309.78C1194.47 1307.98 1194.86 1306.51 1195.62 1305.36C1196.46 1304.14 1197.48 1303.12 1198.7 1302.29C1197.8 1302.03 1196.9 1302.06 1196.01 1302.38C1194.79 1302.58 1193.64 1303.09 1192.55 1303.92C1191.46 1304.69 1190.54 1305.68 1189.77 1306.9C1189 1308.05 1188.39 1309.33 1187.94 1310.74C1187.5 1312.08 1187.27 1313.39 1187.27 1314.67V1340.11C1187.27 1343.18 1188.01 1345.26 1189.48 1346.35C1191.02 1347.44 1193.29 1347.98 1196.3 1347.98V1350C1194.82 1349.94 1192.68 1349.87 1189.86 1349.81C1187.05 1349.68 1184.1 1349.62 1181.03 1349.62C1178.47 1349.62 1175.88 1349.68 1173.26 1349.81C1170.63 1349.87 1168.65 1349.94 1167.3 1350V1347.98C1169.54 1347.98 1171.11 1347.5 1172.01 1346.54C1172.97 1345.58 1173.45 1343.76 1173.45 1341.07V1310.83C1173.45 1307.95 1173 1305.84 1172.1 1304.5C1171.27 1303.09 1169.67 1302.38 1167.3 1302.38V1300.37C1169.35 1300.56 1171.34 1300.66 1173.26 1300.66C1175.94 1300.66 1178.44 1300.56 1180.74 1300.37C1183.11 1300.11 1185.29 1299.76 1187.27 1299.31V1308.24C1188.04 1306.51 1189.06 1304.94 1190.34 1303.54C1191.62 1302.13 1193.1 1301.04 1194.76 1300.27C1196.42 1299.44 1198.28 1299.02 1200.33 1299.02ZM1235.57 1299.02C1241.2 1299.02 1245.62 1300.69 1248.82 1304.02C1252.02 1307.34 1253.62 1312.78 1253.62 1320.34H1222.04L1221.84 1318.51H1241.52C1241.59 1315.38 1241.4 1312.5 1240.95 1309.87C1240.5 1307.18 1239.8 1305.04 1238.84 1303.44C1237.88 1301.84 1236.6 1301.04 1235 1301.04C1232.76 1301.04 1230.84 1302.45 1229.24 1305.26C1227.7 1308.08 1226.77 1312.75 1226.45 1319.28L1226.74 1319.86C1226.68 1320.62 1226.61 1321.42 1226.55 1322.26C1226.55 1323.09 1226.55 1323.95 1226.55 1324.85C1226.55 1329.26 1227.16 1332.85 1228.37 1335.6C1229.65 1338.35 1231.25 1340.37 1233.17 1341.65C1235.09 1342.86 1237.04 1343.47 1239.03 1343.47C1240.37 1343.47 1241.75 1343.28 1243.16 1342.9C1244.63 1342.45 1246.1 1341.68 1247.57 1340.59C1249.04 1339.44 1250.42 1337.84 1251.7 1335.79L1253.43 1336.37C1252.66 1338.8 1251.44 1341.17 1249.78 1343.47C1248.12 1345.78 1246 1347.66 1243.44 1349.14C1240.88 1350.61 1237.81 1351.34 1234.23 1351.34C1229.88 1351.34 1226.04 1350.42 1222.71 1348.56C1219.38 1346.7 1216.76 1343.89 1214.84 1340.11C1212.98 1336.34 1212.05 1331.54 1212.05 1325.71C1212.05 1319.76 1213.04 1314.8 1215.03 1310.83C1217.08 1306.86 1219.86 1303.92 1223.38 1302C1226.96 1300.02 1231.03 1299.02 1235.57 1299.02Z" fill="#1F1F1F" />
  </g>
  <defs>
    <clipPath id="clip0_74_9">
      <rect width="1512" height="7504" fill="white" />
    </clipPath>
  </defs>
</svg>