<svg width="393" height="821" viewBox="0 0 393 821" fill="none" xmlns="http://www.w3.org/2000/svg">
<g clip-path="url(#clip0_107_47)">
<rect width="393" height="821" fill="#E74C3C"/>
<path d="M292.486 481.706V323.516H222.523C238.877 348.696 276.843 420.438 292.486 481.706Z" fill="#1F1F1F"/>
<path d="M46.9546 323.516V520.731H292.486V481.706C276.843 420.438 238.877 348.696 222.523 323.516H46.9546Z" fill="white"/>
<path fill-rule="evenodd" clip-rule="evenodd" d="M393 216.565C388.304 215.691 380.351 213.524 372.02 209.896C364.186 206.483 356.018 201.778 349.909 195.638C346.739 192.451 342.079 190.326 336.616 188.987C320.354 185.001 296.979 187.984 284.62 190.705C279.384 195.295 277.6 198.436 284.62 202.463C287.371 204.041 290.603 206.188 294.109 208.746C293.964 204.557 295.763 197.436 304.12 202.463C312.477 207.489 307.602 213.959 304.12 216.565C314.267 224.97 325.03 235.271 332.586 244.567C336.963 247.7 353.861 243.868 360.617 238.688C367.372 233.508 377.679 231.425 372.02 241.663C369.437 247.992 357.803 259.95 341.159 257.675C338.816 259.25 342.659 261.981 342.597 263.713C342.074 278.238 344.773 324 353.391 324H393V216.565Z" fill="#EF962F"/>
<path d="M377.954 88.5804C364.254 89.9522 339.181 91.7026 342.597 107.933C355.306 107.962 391.816 109.117 393 114.788V86C388.867 87.4877 383.457 88.0294 377.954 88.5804Z" fill="#1F1F1F"/>
<path d="M359.385 174.025C357.155 176.222 355.369 178.864 353.967 181.667C351.641 186.319 350.377 191.412 349.909 195.638C356.018 201.778 364.186 206.483 372.02 209.896C389.709 195.145 370.968 179.836 359.385 174.025Z" fill="#DE5D83"/>
<path fill-rule="evenodd" clip-rule="evenodd" d="M314.566 146.638C319.371 114.018 331.657 107.35 342.597 107.933C355.306 107.962 391.816 109.117 393 114.788V174.025C376.758 164.86 366.076 167.435 359.385 174.025C357.155 176.222 355.369 178.864 353.967 181.667C349.071 181.89 338.746 183.666 336.616 188.987C320.354 185.001 296.979 187.984 284.62 190.705C285.699 189.759 286.925 188.751 288.251 187.661L288.253 187.66L288.253 187.659C297.406 180.137 311.315 168.705 314.566 146.638ZM332.586 135.7H353.391C352.143 132.025 348.238 125.375 342.597 128.175C336.956 130.975 333.572 134.358 332.586 135.7Z" fill="#C74C4E"/>
<path d="M349.909 195.638C350.377 191.412 351.641 186.319 353.967 181.667C349.071 181.89 338.746 183.666 336.616 188.987C342.079 190.326 346.739 192.451 349.909 195.638Z" fill="#F5F6FA"/>
<path fill-rule="evenodd" clip-rule="evenodd" d="M130.5 218C177.72 218 216 179.72 216 132.5C216 85.2797 177.72 47 130.5 47C110.539 47 92.176 53.8401 77.6265 65.3043C118.082 97.8666 177.936 172.333 93.7084 209.701C104.852 215.021 117.328 218 130.5 218Z" fill="#F5B146"/>
<path fill-rule="evenodd" clip-rule="evenodd" d="M50.8863 163.738C50.3478 162.367 49.8436 160.978 49.375 159.573C64.1528 159.882 93.7084 159.18 93.7084 153.904C93.7084 147.309 87.9235 83.6087 77.6265 65.3043C118.082 97.8666 177.936 172.333 93.7084 209.701C74.2295 200.402 58.8218 183.947 50.8863 163.738Z" fill="#1F1F1F"/>
<path d="M77.6265 65.3043C57.757 80.9604 45 105.24 45 132.5C45 141.962 46.537 151.065 49.375 159.573C64.1528 159.882 93.7084 159.18 93.7084 153.904C93.7084 147.309 87.9235 83.6087 77.6265 65.3043Z" fill="#F5F6FA"/>
<line x1="215.597" y1="47.8937" x2="45.3278" y2="47.8937" stroke="black" stroke-width="3"/>
<line x1="216.293" y1="220.253" x2="45.7923" y2="220.253" stroke="black" stroke-width="3"/>
<line x1="45.4346" y1="47.0906" x2="45.4346" y2="217.592" stroke="black" stroke-width="3"/>
<line x1="215.491" y1="218.056" x2="215.491" y2="48.2521" stroke="black" stroke-width="3"/>
<rect x="214.667" y="45" width="3.25207" height="3.25207" fill="#1F1F1F"/>
<rect x="43.0049" y="45.4646" width="3.25207" height="3.25207" fill="#1F1F1F"/>
<rect x="42.5405" y="217.592" width="3.25207" height="3.25207" fill="#1F1F1F"/>
<rect x="215.365" y="217.127" width="3.25207" height="3.25207" fill="#1F1F1F"/>
<rect width="393" height="742" fill="#E74C3C"/>
<path d="M392 89C334.833 69 220.9 42.8 222.5 98C224.5 167 174.5 200 195.5 213.5C216.5 227 308 261.5 298.5 310C289 358.5 263.5 427 236 450C208.5 473 227.5 520 252 518C276.5 516 337.5 558 314 580.5C290.5 603 198 619.5 217 644.5C236 669.5 259 785.5 298.5 784.5C330.1 783.7 389.833 757.667 404.5 758V89H392Z" fill="#F5B146"/>
</g>
<defs>
<clipPath id="clip0_107_47">
<rect width="393" height="821" fill="white"/>
</clipPath>
</defs>
</svg>
