<svg width="1485" height="7383" viewBox="0 0 1485 7383" fill="none" xmlns="http://www.w3.org/2000/svg">
<path fill-rule="evenodd" clip-rule="evenodd" d="M1492.15 5C1070.48 157.167 310.348 592.4 641.148 1012C1054.65 1536.5 1221.95 2193.01 1079.5 2618.5C1053.4 2696.45 1017.06 2792.78 975.801 2902.14C970.857 2915.24 965.843 2928.53 960.768 2942C922.878 3042.54 881.568 3152.99 840.66 3269.5C832.547 3292.6 824.45 3315.95 816.399 3339.5C785.627 3429.51 753.174 3530.57 725.396 3625C720.504 3641.63 718.032 3650.3 713.294 3667C684.424 3768.78 658.572 3871.81 637.793 3974C577.035 4272.81 559.649 4564.54 637 4797.5C888.702 5555.57 883.147 6772.5 742.148 6889.5C629.348 6983.1 625.814 7257.5 638.148 7383H1600.65V31L1492.15 5Z" fill="#F5B146"/>
<path fill-rule="evenodd" clip-rule="evenodd" d="M1510 738.565C1489.72 734.817 1455.38 725.533 1419.4 709.981C1385.57 695.357 1350.29 675.19 1323.91 648.875C1310.22 635.22 1290.09 626.111 1266.5 620.372C1196.27 603.291 1095.32 616.074 1041.95 627.735C1019.34 647.406 1011.64 660.867 1041.95 678.125C1053.83 684.89 1067.79 694.09 1082.93 705.054C1082.3 687.101 1090.07 656.582 1126.16 678.125C1162.25 699.668 1141.2 727.395 1126.16 738.565C1169.98 774.584 1216.47 818.733 1249.1 858.574C1268 872 1340.98 855.575 1370.15 833.375C1399.32 811.175 1443.83 802.25 1419.4 846.125C1408.24 873.25 1358 924.5 1286.12 914.75C1276 921.5 1292.6 933.203 1292.33 940.625C1290.07 1002.88 1301.73 1199 1338.95 1199H1510V738.565Z" fill="#EF962F"/>
<path d="M1445.02 190.059C1385.86 195.938 1277.58 203.44 1292.33 273C1347.22 273.125 1504.89 278.075 1510 302.375V179C1492.15 185.376 1468.79 187.697 1445.02 190.059Z" fill="#1F1F1F"/>
<path d="M1364.83 556.25C1355.2 565.664 1347.49 576.989 1341.43 589C1331.39 608.938 1325.93 630.765 1323.91 648.875C1350.29 675.19 1385.57 695.357 1419.4 709.981C1495.79 646.765 1414.85 581.154 1364.83 556.25Z" fill="#DE5D83"/>
<path fill-rule="evenodd" clip-rule="evenodd" d="M1171.28 438.875C1192.03 299.075 1245.09 270.5 1292.33 273C1347.22 273.125 1504.89 278.075 1510 302.375V556.25C1439.86 516.973 1393.73 528.008 1364.83 556.25C1355.2 565.664 1347.49 576.989 1341.43 589C1320.29 589.956 1275.7 597.57 1266.5 620.372C1196.27 603.291 1095.32 616.074 1041.95 627.735C1046.61 623.68 1051.91 619.361 1057.63 614.69L1057.64 614.684L1057.64 614.683C1097.17 582.442 1157.24 533.45 1171.28 438.875ZM1249.1 392H1338.95C1333.56 376.25 1316.69 347.75 1292.33 359.75C1267.97 371.75 1253.36 386.25 1249.1 392Z" fill="#C74C4E"/>
<path d="M1323.91 648.875C1325.93 630.765 1331.39 608.938 1341.43 589C1320.29 589.956 1275.7 597.57 1266.5 620.372C1290.09 626.111 1310.22 635.22 1323.91 648.875Z" fill="#F5F6FA"/>
<path fill-rule="evenodd" clip-rule="evenodd" d="M378.5 748C582.569 748 748 582.569 748 378.5C748 174.431 582.569 9 378.5 9C292.237 9 212.878 38.5606 150 88.1047C324.833 228.827 583.5 550.644 219.5 712.136C267.659 735.128 321.576 748 378.5 748Z" fill="#F5B146"/>
<path fill-rule="evenodd" clip-rule="evenodd" d="M34.4384 513.5C32.111 507.573 29.9324 501.572 27.9071 495.5C91.7714 496.833 219.5 493.8 219.5 471C219.5 442.5 194.5 167.209 150 88.1047C324.833 228.827 583.5 550.644 219.5 712.136C135.319 671.946 68.7328 600.835 34.4384 513.5Z" fill="#1F1F1F"/>
<path d="M150 88.1047C64.131 155.765 9 260.694 9 378.5C9 419.391 15.6424 458.732 27.9071 495.5C91.7714 496.833 219.5 493.8 219.5 471C219.5 442.5 194.5 167.209 150 88.1047Z" fill="#F5F6FA"/>
<line x1="745" y1="7.5" x2="12" y2="7.5" stroke="black" stroke-width="3"/>
<line x1="748" y1="749.5" x2="14" y2="749.5" stroke="black" stroke-width="3"/>
<line x1="7.5" y1="9" x2="7.49997" y2="743" stroke="black" stroke-width="3"/>
<line x1="749.5" y1="745" x2="749.5" y2="14" stroke="black" stroke-width="3"/>
<rect x="741" width="14" height="14" fill="#1F1F1F"/>
<rect x="2" y="2" width="14" height="14" fill="#1F1F1F"/>
<rect y="743" width="14" height="14" fill="#1F1F1F"/>
<rect x="744" y="741" width="14" height="14" fill="#1F1F1F"/>
<path d="M408.504 171.032V172.952C407.096 173.464 405.624 174.584 404.088 176.312C402.552 177.976 401.208 180.664 400.056 184.376L383.16 239.192C382.648 239.128 382.104 239.096 381.528 239.096C380.952 239.096 380.376 239.096 379.8 239.096C379.224 239.096 378.648 239.096 378.072 239.096C377.496 239.096 376.952 239.128 376.44 239.192L356.28 178.136C355.64 176.152 354.84 174.808 353.88 174.104C352.984 173.4 352.024 173.016 351 172.952V171.032C352.792 171.096 354.904 171.16 357.336 171.224C359.832 171.288 362.296 171.32 364.728 171.32C367.544 171.32 370.168 171.288 372.6 171.224C375.096 171.16 377.08 171.096 378.552 171.032V172.952C376.632 173.016 375.096 173.24 373.944 173.624C372.856 174.008 372.216 174.744 372.024 175.832C371.896 176.92 372.216 178.648 372.984 181.016L386.616 222.68L384.408 226.616L395.256 192.152C396.792 187.288 397.528 183.48 397.464 180.728C397.4 177.976 396.664 176.024 395.256 174.872C393.848 173.656 391.832 173.016 389.208 172.952V171.032C391.384 171.096 393.432 171.16 395.352 171.224C397.272 171.288 399.192 171.32 401.112 171.32C402.584 171.32 403.928 171.288 405.144 171.224C406.424 171.16 407.544 171.096 408.504 171.032ZM339.96 171.032V172.952C338.68 173.144 337.784 173.624 337.272 174.392C336.76 175.096 336.536 176.056 336.6 177.272C336.728 178.424 337.016 179.672 337.464 181.016L352.152 223.64L349.56 227.096L361.848 191.192L363.192 193.784L348.12 239.192C347.608 239.128 347.064 239.096 346.488 239.096C345.912 239.096 345.336 239.096 344.76 239.096C344.184 239.096 343.608 239.096 343.032 239.096C342.456 239.096 341.912 239.128 341.4 239.192L319.896 179.096C319.064 176.728 318.072 175.128 316.92 174.296C315.832 173.464 314.808 173.016 313.848 172.952V171.032C315.768 171.096 318.04 171.16 320.664 171.224C323.288 171.288 325.784 171.32 328.152 171.32C330.712 171.32 332.984 171.288 334.968 171.224C337.016 171.16 338.68 171.096 339.96 171.032ZM428.228 188.024C433.86 188.024 438.276 189.688 441.476 193.016C444.676 196.344 446.276 201.784 446.276 209.336H414.692L414.5 207.512H434.18C434.244 204.376 434.052 201.496 433.604 198.872C433.156 196.184 432.452 194.04 431.492 192.44C430.532 190.84 429.252 190.04 427.652 190.04C425.412 190.04 423.492 191.448 421.892 194.264C420.356 197.08 419.428 201.752 419.108 208.28L419.396 208.856C419.332 209.624 419.268 210.424 419.204 211.256C419.204 212.088 419.204 212.952 419.204 213.848C419.204 218.264 419.812 221.848 421.028 224.6C422.308 227.352 423.908 229.368 425.828 230.648C427.748 231.864 429.7 232.472 431.684 232.472C433.028 232.472 434.404 232.28 435.812 231.896C437.284 231.448 438.756 230.68 440.228 229.592C441.7 228.44 443.076 226.84 444.356 224.792L446.084 225.368C445.316 227.8 444.1 230.168 442.436 232.472C440.772 234.776 438.66 236.664 436.1 238.136C433.54 239.608 430.468 240.344 426.884 240.344C422.532 240.344 418.692 239.416 415.364 237.56C412.036 235.704 409.412 232.888 407.492 229.112C405.636 225.336 404.708 220.536 404.708 214.712C404.708 208.76 405.7 203.8 407.684 199.832C409.732 195.864 412.516 192.92 416.036 191C419.62 189.016 423.684 188.024 428.228 188.024Z" fill="#1F1F1F"/>
<path d="M435.112 246.688C439.336 246.688 442.792 247.328 445.48 248.608C448.232 249.824 450.664 251.264 452.776 252.928C454.056 253.888 455.016 254.016 455.656 253.312C456.36 252.544 456.84 250.784 457.096 248.032H459.304C459.176 250.528 459.08 253.568 459.016 257.152C458.952 260.672 458.92 265.376 458.92 271.264H456.712C456.392 268.32 455.976 265.824 455.464 263.776C454.952 261.664 454.248 259.808 453.352 258.208C452.456 256.608 451.176 255.168 449.512 253.888C447.912 252.288 446.056 251.104 443.944 250.336C441.832 249.568 439.624 249.184 437.32 249.184C433.864 249.184 430.92 250.112 428.488 251.968C426.056 253.76 424.072 256.224 422.536 259.36C421.064 262.496 419.976 266.048 419.272 270.016C418.568 273.92 418.216 277.984 418.216 282.208C418.216 286.496 418.568 290.624 419.272 294.592C420.04 298.496 421.192 301.984 422.728 305.056C424.328 308.128 426.376 310.56 428.872 312.352C431.368 314.144 434.312 315.04 437.704 315.04C439.816 315.04 441.928 314.656 444.04 313.888C446.216 313.056 448.072 311.872 449.608 310.336C452.104 308.416 453.8 306.048 454.696 303.232C455.592 300.352 456.264 296.544 456.712 291.808H458.92C458.92 297.888 458.952 302.816 459.016 306.592C459.08 310.304 459.176 313.44 459.304 316H457.096C456.84 313.248 456.392 311.52 455.752 310.816C455.176 310.112 454.184 310.208 452.776 311.104C450.408 312.768 447.88 314.24 445.192 315.52C442.568 316.736 439.176 317.344 435.016 317.344C428.232 317.344 422.28 315.968 417.16 313.216C412.104 310.464 408.168 306.496 405.352 301.312C402.536 296.128 401.128 289.888 401.128 282.592C401.128 275.424 402.568 269.152 405.448 263.776C408.392 258.4 412.392 254.208 417.448 251.2C422.568 248.192 428.456 246.688 435.112 246.688ZM500.016 265.024C502.064 265.024 503.728 265.472 505.008 266.368C506.288 267.2 507.216 268.288 507.792 269.632C508.432 270.976 508.752 272.384 508.752 273.856C508.752 276.224 508.048 278.176 506.64 279.712C505.296 281.184 503.504 281.92 501.264 281.92C499.024 281.92 497.264 281.376 495.984 280.288C494.768 279.136 494.16 277.632 494.16 275.776C494.16 273.984 494.544 272.512 495.312 271.36C496.144 270.144 497.168 269.12 498.384 268.288C497.488 268.032 496.592 268.064 495.696 268.384C494.48 268.576 493.328 269.088 492.24 269.92C491.152 270.688 490.224 271.68 489.456 272.896C488.688 274.048 488.08 275.328 487.632 276.736C487.184 278.08 486.96 279.392 486.96 280.672V306.112C486.96 309.184 487.696 311.264 489.168 312.352C490.704 313.44 492.976 313.984 495.984 313.984V316C494.512 315.936 492.368 315.872 489.552 315.808C486.736 315.68 483.792 315.616 480.72 315.616C478.16 315.616 475.568 315.68 472.944 315.808C470.32 315.872 468.336 315.936 466.992 316V313.984C469.232 313.984 470.8 313.504 471.696 312.544C472.656 311.584 473.136 309.76 473.136 307.072V276.832C473.136 273.952 472.688 271.84 471.792 270.496C470.96 269.088 469.36 268.384 466.992 268.384V266.368C469.04 266.56 471.024 266.656 472.944 266.656C475.632 266.656 478.128 266.56 480.432 266.368C482.8 266.112 484.976 265.76 486.96 265.312V274.24C487.728 272.512 488.752 270.944 490.031 269.536C491.312 268.128 492.784 267.04 494.448 266.272C496.112 265.44 497.968 265.024 500.016 265.024ZM535.26 265.024C540.892 265.024 545.308 266.688 548.508 270.016C551.708 273.344 553.308 278.784 553.308 286.336H521.724L521.532 284.512H541.212C541.276 281.376 541.084 278.496 540.636 275.872C540.188 273.184 539.484 271.04 538.524 269.44C537.564 267.84 536.284 267.04 534.684 267.04C532.444 267.04 530.524 268.448 528.924 271.264C527.388 274.08 526.46 278.752 526.14 285.28L526.428 285.856C526.364 286.624 526.3 287.424 526.236 288.256C526.236 289.088 526.236 289.952 526.236 290.848C526.236 295.264 526.844 298.848 528.06 301.6C529.34 304.352 530.94 306.368 532.859 307.648C534.78 308.864 536.732 309.472 538.716 309.472C540.06 309.472 541.436 309.28 542.844 308.896C544.316 308.448 545.788 307.68 547.26 306.592C548.732 305.44 550.108 303.84 551.388 301.792L553.116 302.368C552.348 304.8 551.132 307.168 549.468 309.472C547.804 311.776 545.692 313.664 543.132 315.136C540.572 316.608 537.5 317.344 533.916 317.344C529.564 317.344 525.724 316.416 522.396 314.56C519.068 312.704 516.444 309.888 514.523 306.112C512.668 302.336 511.74 297.536 511.74 291.712C511.74 285.76 512.732 280.8 514.716 276.832C516.764 272.864 519.548 269.92 523.068 268C526.652 266.016 530.716 265.024 535.26 265.024ZM572.115 316.672C569.235 316.672 566.835 316.128 564.915 315.04C562.995 313.952 561.587 312.512 560.691 310.72C559.795 308.864 559.347 306.848 559.347 304.672C559.347 301.92 559.955 299.68 561.171 297.952C562.451 296.224 564.083 294.816 566.067 293.728C568.051 292.64 570.131 291.744 572.307 291.04C574.547 290.336 576.659 289.664 578.643 289.024C580.691 288.32 582.323 287.52 583.539 286.624C584.819 285.664 585.459 284.448 585.459 282.976V275.488C585.459 273.824 585.171 272.352 584.595 271.072C584.083 269.728 583.251 268.704 582.099 268C581.011 267.296 579.571 266.944 577.779 266.944C576.499 266.944 575.219 267.136 573.939 267.52C572.659 267.84 571.603 268.416 570.771 269.248C572.563 269.888 573.939 270.88 574.899 272.224C575.923 273.504 576.435 274.976 576.435 276.64C576.435 278.816 575.667 280.544 574.131 281.824C572.659 283.104 570.899 283.744 568.851 283.744C566.547 283.744 564.787 283.04 563.571 281.632C562.419 280.16 561.843 278.4 561.843 276.352C561.843 274.496 562.291 272.96 563.187 271.744C564.147 270.528 565.459 269.376 567.123 268.288C568.915 267.264 571.059 266.464 573.555 265.888C576.115 265.312 578.867 265.024 581.811 265.024C584.755 265.024 587.411 265.344 589.779 265.984C592.147 266.56 594.131 267.648 595.731 269.248C597.203 270.72 598.163 272.544 598.611 274.72C599.059 276.832 599.283 279.52 599.283 282.784V308.896C599.283 310.496 599.443 311.616 599.763 312.256C600.083 312.832 600.627 313.12 601.395 313.12C601.971 313.12 602.515 312.96 603.027 312.64C603.603 312.32 604.211 311.936 604.851 311.488L605.811 313.12C604.467 314.272 602.899 315.168 601.107 315.808C599.379 316.384 597.427 316.672 595.251 316.672C592.883 316.672 590.995 316.352 589.587 315.712C588.179 315.008 587.155 314.08 586.515 312.928C585.939 311.776 585.651 310.432 585.651 308.896C584.115 311.328 582.259 313.248 580.083 314.656C577.907 316 575.251 316.672 572.115 316.672ZM578.931 310.528C580.211 310.528 581.363 310.24 582.387 309.664C583.475 309.024 584.499 308 585.459 306.592V286.912C584.883 287.872 584.083 288.736 583.059 289.504C582.035 290.272 580.947 291.072 579.795 291.904C578.643 292.672 577.523 293.536 576.435 294.496C575.411 295.456 574.579 296.64 573.939 298.048C573.299 299.456 572.979 301.152 572.979 303.136C572.979 305.632 573.523 307.488 574.611 308.704C575.699 309.92 577.139 310.528 578.931 310.528ZM628.042 250.624V266.368H639.37V268.288H628.042V307.072C628.042 308.992 628.394 310.368 629.098 311.2C629.802 311.968 630.858 312.352 632.266 312.352C633.418 312.352 634.57 311.936 635.722 311.104C636.874 310.208 637.898 308.704 638.794 306.592L640.426 307.456C639.402 310.336 637.834 312.704 635.722 314.56C633.674 316.416 630.858 317.344 627.274 317.344C625.162 317.344 623.306 317.056 621.706 316.48C620.106 315.968 618.762 315.168 617.674 314.08C616.266 312.672 615.338 310.944 614.89 308.896C614.442 306.784 614.218 304.064 614.218 300.736V268.288H606.154V266.368H614.218V253.696C616.906 253.696 619.37 253.472 621.61 253.024C623.914 252.512 626.058 251.712 628.042 250.624ZM666.697 265.024C672.329 265.024 676.745 266.688 679.945 270.016C683.145 273.344 684.745 278.784 684.745 286.336H653.161L652.969 284.512H672.649C672.713 281.376 672.521 278.496 672.073 275.872C671.625 273.184 670.921 271.04 669.961 269.44C669.001 267.84 667.721 267.04 666.121 267.04C663.881 267.04 661.961 268.448 660.361 271.264C658.825 274.08 657.897 278.752 657.577 285.28L657.865 285.856C657.801 286.624 657.737 287.424 657.673 288.256C657.673 289.088 657.673 289.952 657.673 290.848C657.673 295.264 658.281 298.848 659.497 301.6C660.777 304.352 662.377 306.368 664.297 307.648C666.217 308.864 668.169 309.472 670.153 309.472C671.497 309.472 672.873 309.28 674.281 308.896C675.753 308.448 677.225 307.68 678.697 306.592C680.169 305.44 681.545 303.84 682.825 301.792L684.553 302.368C683.785 304.8 682.569 307.168 680.905 309.472C679.241 311.776 677.129 313.664 674.569 315.136C672.009 316.608 668.937 317.344 665.353 317.344C661.001 317.344 657.161 316.416 653.833 314.56C650.505 312.704 647.881 309.888 645.961 306.112C644.105 302.336 643.177 297.536 643.177 291.712C643.177 285.76 644.169 280.8 646.153 276.832C648.201 272.864 650.985 269.92 654.505 268C658.089 266.016 662.153 265.024 666.697 265.024Z" fill="#1F1F1F"/>
<path d="M577.624 352.032C577.368 354.912 577.176 357.696 577.048 360.384C576.984 363.072 576.952 365.152 576.952 366.624C576.952 368.032 576.984 369.376 577.048 370.656C577.112 371.936 577.176 373.024 577.24 373.92H575.032C574.2 368.928 573.048 365.024 571.576 362.208C570.104 359.328 568.28 357.28 566.104 356.064C563.992 354.848 561.464 354.24 558.52 354.24H555.352C553.496 354.24 552.088 354.4 551.128 354.72C550.168 355.04 549.528 355.68 549.208 356.64C548.888 357.6 548.728 359.072 548.728 361.056V409.248C548.728 411.744 548.984 413.6 549.496 414.816C550.008 416.032 551 416.832 552.472 417.216C553.944 417.6 556.12 417.824 559 417.888V420C557.016 419.936 554.456 419.872 551.32 419.808C548.184 419.744 544.888 419.712 541.432 419.712C538.68 419.712 535.992 419.744 533.368 419.808C530.744 419.872 528.376 419.936 526.264 420V418.08C528.312 417.952 529.848 417.696 530.872 417.312C531.896 416.928 532.568 416.16 532.888 415.008C533.272 413.856 533.464 412.128 533.464 409.824V362.208C533.464 359.84 533.272 358.112 532.888 357.024C532.568 355.872 531.864 355.104 530.776 354.72C529.752 354.272 528.248 354.016 526.264 353.952V352.032C528.888 352.096 531.672 352.16 534.616 352.224C537.56 352.224 540.472 352.256 543.352 352.32C546.232 352.32 548.92 352.32 551.416 352.32C553.912 352.32 555.96 352.32 557.56 352.32C560.504 352.32 563.832 352.32 567.544 352.32C571.32 352.256 574.68 352.16 577.624 352.032ZM563.32 385.248C563.32 385.248 563.32 385.568 563.32 386.208C563.32 386.848 563.32 387.168 563.32 387.168H545.848C545.848 387.168 545.848 386.848 545.848 386.208C545.848 385.568 545.848 385.248 545.848 385.248H563.32ZM565.72 372.576C565.464 376.224 565.336 379.008 565.336 380.928C565.4 382.848 565.432 384.608 565.432 386.208C565.432 387.808 565.464 389.568 565.528 391.488C565.592 393.408 565.752 396.192 566.008 399.84H563.8C563.416 397.6 562.808 395.52 561.976 393.6C561.144 391.68 559.928 390.144 558.328 388.992C556.728 387.776 554.648 387.168 552.088 387.168V385.248C554.008 385.248 555.608 384.864 556.888 384.096C558.232 383.264 559.352 382.208 560.248 380.928C561.144 379.584 561.848 378.176 562.36 376.704C562.872 375.232 563.256 373.856 563.512 372.576H565.72ZM604.447 369.024C609.119 369.024 613.215 369.888 616.735 371.616C620.255 373.344 623.007 376.128 624.991 379.968C626.975 383.808 627.967 388.896 627.967 395.232C627.967 401.568 626.975 406.656 624.991 410.496C623.007 414.272 620.255 417.024 616.735 418.752C613.215 420.48 609.119 421.344 604.447 421.344C599.903 421.344 595.839 420.48 592.255 418.752C588.735 417.024 585.951 414.272 583.903 410.496C581.919 406.656 580.927 401.568 580.927 395.232C580.927 388.896 581.919 383.808 583.903 379.968C585.951 376.128 588.735 373.344 592.255 371.616C595.839 369.888 599.903 369.024 604.447 369.024ZM604.447 370.944C601.887 370.944 599.743 372.864 598.015 376.704C596.287 380.48 595.423 386.656 595.423 395.232C595.423 403.808 596.287 409.984 598.015 413.76C599.743 417.536 601.887 419.424 604.447 419.424C607.071 419.424 609.215 417.536 610.879 413.76C612.607 409.984 613.471 403.808 613.471 395.232C613.471 386.656 612.607 380.48 610.879 376.704C609.215 372.864 607.071 370.944 604.447 370.944ZM666.984 369.024C669.032 369.024 670.696 369.472 671.976 370.368C673.256 371.2 674.184 372.288 674.76 373.632C675.4 374.976 675.72 376.384 675.72 377.856C675.72 380.224 675.016 382.176 673.608 383.712C672.264 385.184 670.472 385.92 668.232 385.92C665.992 385.92 664.232 385.376 662.952 384.288C661.736 383.136 661.128 381.632 661.128 379.776C661.128 377.984 661.512 376.512 662.28 375.36C663.112 374.144 664.136 373.12 665.352 372.288C664.456 372.032 663.56 372.064 662.664 372.384C661.448 372.576 660.296 373.088 659.208 373.92C658.12 374.688 657.192 375.68 656.424 376.896C655.656 378.048 655.048 379.328 654.6 380.736C654.152 382.08 653.928 383.392 653.928 384.672V410.112C653.928 413.184 654.664 415.264 656.136 416.352C657.672 417.44 659.944 417.984 662.952 417.984V420C661.48 419.936 659.336 419.872 656.52 419.808C653.704 419.68 650.76 419.616 647.688 419.616C645.128 419.616 642.536 419.68 639.912 419.808C637.288 419.872 635.304 419.936 633.96 420V417.984C636.2 417.984 637.768 417.504 638.664 416.544C639.624 415.584 640.104 413.76 640.104 411.072V380.832C640.104 377.952 639.656 375.84 638.76 374.496C637.928 373.088 636.328 372.384 633.96 372.384V370.368C636.008 370.56 637.992 370.656 639.912 370.656C642.6 370.656 645.096 370.56 647.4 370.368C649.768 370.112 651.944 369.76 653.928 369.312V378.24C654.696 376.512 655.72 374.944 657 373.536C658.28 372.128 659.752 371.04 661.416 370.272C663.08 369.44 664.936 369.024 666.984 369.024Z" fill="#1F1F1F"/>
<path d="M849.328 1075.84L872.656 1135.94C873.552 1138.24 874.544 1139.84 875.632 1140.74C876.784 1141.57 877.808 1142.02 878.704 1142.08V1144C876.784 1143.87 874.512 1143.81 871.888 1143.81C869.328 1143.74 866.736 1143.71 864.112 1143.71C861.168 1143.71 858.384 1143.74 855.76 1143.81C853.136 1143.81 851.056 1143.87 849.52 1144V1142.08C852.784 1141.95 854.832 1141.41 855.664 1140.45C856.56 1139.42 856.368 1137.28 855.088 1134.02L838.768 1089.38L840.496 1086.88L825.904 1124.9C824.496 1128.42 823.632 1131.3 823.312 1133.54C823.056 1135.78 823.216 1137.5 823.792 1138.72C824.432 1139.94 825.424 1140.8 826.768 1141.31C828.176 1141.76 829.84 1142.02 831.76 1142.08V1144C829.648 1143.87 827.632 1143.81 825.712 1143.81C823.792 1143.74 821.84 1143.71 819.856 1143.71C818.448 1143.71 817.104 1143.74 815.824 1143.81C814.608 1143.81 813.52 1143.87 812.56 1144V1142.08C813.904 1141.82 815.28 1140.96 816.688 1139.49C818.096 1138.02 819.472 1135.52 820.816 1132L842.704 1075.84C843.728 1075.9 844.816 1075.94 845.968 1075.94C847.184 1075.94 848.304 1075.9 849.328 1075.84ZM856.048 1116.35V1118.27H827.44L828.4 1116.35H856.048Z" fill="#1F1F1F"/>
<path d="M923.232 1093.02C928.224 1093.02 932.352 1095.07 935.616 1099.17C938.944 1103.2 940.608 1109.44 940.608 1117.89C940.608 1124.54 939.584 1129.89 937.536 1133.92C935.552 1137.95 932.896 1140.86 929.568 1142.66C926.24 1144.45 922.592 1145.34 918.624 1145.34C916 1145.34 913.568 1144.9 911.328 1144C909.088 1143.1 907.168 1141.63 905.568 1139.58L906.912 1139.1C908.064 1140.51 909.408 1141.57 910.944 1142.27C912.544 1142.98 914.112 1143.33 915.648 1143.33C919.168 1143.33 921.792 1141.34 923.52 1137.38C925.248 1133.41 926.112 1127.36 926.112 1119.23C926.112 1113.73 925.76 1109.38 925.056 1106.18C924.416 1102.91 923.456 1100.61 922.176 1099.26C920.896 1097.86 919.36 1097.15 917.568 1097.15C915.328 1097.15 913.28 1098.08 911.424 1099.94C909.568 1101.73 908.512 1104.26 908.256 1107.52L907.776 1104.16C908.928 1100.51 910.88 1097.76 913.632 1095.9C916.384 1093.98 919.584 1093.02 923.232 1093.02ZM908.544 1068.93V1142.08C906.944 1141.82 905.312 1141.82 903.648 1142.08C901.984 1142.34 900.448 1142.78 899.04 1143.42C897.632 1144 896.448 1144.7 895.488 1145.54L894.048 1144.67C894.304 1143.78 894.464 1142.88 894.528 1141.98C894.656 1141.09 894.72 1140.19 894.72 1139.3V1080.45C894.72 1077.57 894.272 1075.46 893.376 1074.11C892.544 1072.7 890.944 1072 888.576 1072V1069.98C890.624 1070.18 892.608 1070.27 894.528 1070.27C897.152 1070.27 899.648 1070.18 902.016 1069.98C904.384 1069.73 906.56 1069.38 908.544 1068.93ZM971.322 1093.02C976.954 1093.02 981.37 1094.69 984.57 1098.02C987.77 1101.34 989.37 1106.78 989.37 1114.34H957.786L957.594 1112.51H977.274C977.338 1109.38 977.146 1106.5 976.698 1103.87C976.25 1101.18 975.546 1099.04 974.586 1097.44C973.626 1095.84 972.346 1095.04 970.746 1095.04C968.506 1095.04 966.586 1096.45 964.986 1099.26C963.45 1102.08 962.522 1106.75 962.202 1113.28L962.49 1113.86C962.426 1114.62 962.362 1115.42 962.298 1116.26C962.298 1117.09 962.298 1117.95 962.298 1118.85C962.298 1123.26 962.906 1126.85 964.122 1129.6C965.402 1132.35 967.002 1134.37 968.922 1135.65C970.842 1136.86 972.794 1137.47 974.778 1137.47C976.122 1137.47 977.498 1137.28 978.906 1136.9C980.378 1136.45 981.85 1135.68 983.322 1134.59C984.794 1133.44 986.17 1131.84 987.45 1129.79L989.178 1130.37C988.41 1132.8 987.194 1135.17 985.53 1137.47C983.866 1139.78 981.754 1141.66 979.194 1143.14C976.634 1144.61 973.562 1145.34 969.978 1145.34C965.626 1145.34 961.786 1144.42 958.458 1142.56C955.13 1140.7 952.506 1137.89 950.586 1134.11C948.73 1130.34 947.802 1125.54 947.802 1119.71C947.802 1113.76 948.794 1108.8 950.778 1104.83C952.826 1100.86 955.61 1097.92 959.13 1096C962.714 1094.02 966.778 1093.02 971.322 1093.02ZM1014.42 1078.62V1094.37H1025.75V1096.29H1014.42V1135.07C1014.42 1136.99 1014.77 1138.37 1015.47 1139.2C1016.18 1139.97 1017.23 1140.35 1018.64 1140.35C1019.79 1140.35 1020.95 1139.94 1022.1 1139.1C1023.25 1138.21 1024.27 1136.7 1025.17 1134.59L1026.8 1135.46C1025.78 1138.34 1024.21 1140.7 1022.1 1142.56C1020.05 1144.42 1017.23 1145.34 1013.65 1145.34C1011.54 1145.34 1009.68 1145.06 1008.08 1144.48C1006.48 1143.97 1005.14 1143.17 1004.05 1142.08C1002.64 1140.67 1001.71 1138.94 1001.27 1136.9C1000.82 1134.78 1000.59 1132.06 1000.59 1128.74V1096.29H992.529V1094.37H1000.59V1081.7C1003.28 1081.7 1005.75 1081.47 1007.99 1081.02C1010.29 1080.51 1012.43 1079.71 1014.42 1078.62ZM1045.45 1078.62V1094.37H1056.78V1096.29H1045.45V1135.07C1045.45 1136.99 1045.8 1138.37 1046.5 1139.2C1047.21 1139.97 1048.26 1140.35 1049.67 1140.35C1050.82 1140.35 1051.98 1139.94 1053.13 1139.1C1054.28 1138.21 1055.3 1136.7 1056.2 1134.59L1057.83 1135.46C1056.81 1138.34 1055.24 1140.7 1053.13 1142.56C1051.08 1144.42 1048.26 1145.34 1044.68 1145.34C1042.57 1145.34 1040.71 1145.06 1039.11 1144.48C1037.51 1143.97 1036.17 1143.17 1035.08 1142.08C1033.67 1140.67 1032.74 1138.94 1032.3 1136.9C1031.85 1134.78 1031.62 1132.06 1031.62 1128.74V1096.29H1023.56V1094.37H1031.62V1081.7C1034.31 1081.7 1036.78 1081.47 1039.02 1081.02C1041.32 1080.51 1043.46 1079.71 1045.45 1078.62ZM1084.1 1093.02C1089.74 1093.02 1094.15 1094.69 1097.35 1098.02C1100.55 1101.34 1102.15 1106.78 1102.15 1114.34H1070.57L1070.38 1112.51H1090.06C1090.12 1109.38 1089.93 1106.5 1089.48 1103.87C1089.03 1101.18 1088.33 1099.04 1087.37 1097.44C1086.41 1095.84 1085.13 1095.04 1083.53 1095.04C1081.29 1095.04 1079.37 1096.45 1077.77 1099.26C1076.23 1102.08 1075.3 1106.75 1074.98 1113.28L1075.27 1113.86C1075.21 1114.62 1075.14 1115.42 1075.08 1116.26C1075.08 1117.09 1075.08 1117.95 1075.08 1118.85C1075.08 1123.26 1075.69 1126.85 1076.9 1129.6C1078.18 1132.35 1079.78 1134.37 1081.7 1135.65C1083.62 1136.86 1085.58 1137.47 1087.56 1137.47C1088.9 1137.47 1090.28 1137.28 1091.69 1136.9C1093.16 1136.45 1094.63 1135.68 1096.1 1134.59C1097.58 1133.44 1098.95 1131.84 1100.23 1129.79L1101.96 1130.37C1101.19 1132.8 1099.98 1135.17 1098.31 1137.47C1096.65 1139.78 1094.54 1141.66 1091.98 1143.14C1089.42 1144.61 1086.34 1145.34 1082.76 1145.34C1078.41 1145.34 1074.57 1144.42 1071.24 1142.56C1067.91 1140.7 1065.29 1137.89 1063.37 1134.11C1061.51 1130.34 1060.58 1125.54 1060.58 1119.71C1060.58 1113.76 1061.58 1108.8 1063.56 1104.83C1065.61 1100.86 1068.39 1097.92 1071.91 1096C1075.5 1094.02 1079.56 1093.02 1084.1 1093.02ZM1140.17 1093.02C1142.22 1093.02 1143.88 1093.47 1145.16 1094.37C1146.44 1095.2 1147.37 1096.29 1147.95 1097.63C1148.59 1098.98 1148.91 1100.38 1148.91 1101.86C1148.91 1104.22 1148.2 1106.18 1146.8 1107.71C1145.45 1109.18 1143.66 1109.92 1141.42 1109.92C1139.18 1109.92 1137.42 1109.38 1136.14 1108.29C1134.92 1107.14 1134.32 1105.63 1134.32 1103.78C1134.32 1101.98 1134.7 1100.51 1135.47 1099.36C1136.3 1098.14 1137.32 1097.12 1138.54 1096.29C1137.64 1096.03 1136.75 1096.06 1135.85 1096.38C1134.64 1096.58 1133.48 1097.09 1132.4 1097.92C1131.31 1098.69 1130.38 1099.68 1129.61 1100.9C1128.84 1102.05 1128.24 1103.33 1127.79 1104.74C1127.34 1106.08 1127.12 1107.39 1127.12 1108.67V1134.11C1127.12 1137.18 1127.85 1139.26 1129.32 1140.35C1130.86 1141.44 1133.13 1141.98 1136.14 1141.98V1144C1134.67 1143.94 1132.52 1143.87 1129.71 1143.81C1126.89 1143.68 1123.95 1143.62 1120.88 1143.62C1118.32 1143.62 1115.72 1143.68 1113.1 1143.81C1110.48 1143.87 1108.49 1143.94 1107.15 1144V1141.98C1109.39 1141.98 1110.96 1141.5 1111.85 1140.54C1112.81 1139.58 1113.29 1137.76 1113.29 1135.07V1104.83C1113.29 1101.95 1112.84 1099.84 1111.95 1098.5C1111.12 1097.09 1109.52 1096.38 1107.15 1096.38V1094.37C1109.2 1094.56 1111.18 1094.66 1113.1 1094.66C1115.79 1094.66 1118.28 1094.56 1120.59 1094.37C1122.96 1094.11 1125.13 1093.76 1127.12 1093.31V1102.24C1127.88 1100.51 1128.91 1098.94 1130.19 1097.54C1131.47 1096.13 1132.94 1095.04 1134.6 1094.27C1136.27 1093.44 1138.12 1093.02 1140.17 1093.02Z" fill="#1F1F1F"/>
<path d="M985.624 1161.03C985.368 1163.91 985.176 1166.7 985.048 1169.38C984.984 1172.07 984.952 1174.15 984.952 1175.62C984.952 1177.03 984.984 1178.38 985.048 1179.66C985.112 1180.94 985.176 1182.02 985.24 1182.92H983.032C982.2 1177.93 981.048 1174.02 979.576 1171.21C978.104 1168.33 976.28 1166.28 974.104 1165.06C971.992 1163.85 969.464 1163.24 966.52 1163.24H963.352C961.496 1163.24 960.088 1163.4 959.128 1163.72C958.168 1164.04 957.528 1164.68 957.208 1165.64C956.888 1166.6 956.728 1168.07 956.728 1170.06V1218.25C956.728 1220.74 956.984 1222.6 957.496 1223.82C958.008 1225.03 959 1225.83 960.472 1226.22C961.944 1226.6 964.12 1226.82 967 1226.89V1229C965.016 1228.94 962.456 1228.87 959.32 1228.81C956.184 1228.74 952.888 1228.71 949.432 1228.71C946.68 1228.71 943.992 1228.74 941.368 1228.81C938.744 1228.87 936.376 1228.94 934.264 1229V1227.08C936.312 1226.95 937.848 1226.7 938.872 1226.31C939.896 1225.93 940.568 1225.16 940.888 1224.01C941.272 1222.86 941.464 1221.13 941.464 1218.82V1171.21C941.464 1168.84 941.272 1167.11 940.888 1166.02C940.568 1164.87 939.864 1164.1 938.776 1163.72C937.752 1163.27 936.248 1163.02 934.264 1162.95V1161.03C936.888 1161.1 939.672 1161.16 942.616 1161.22C945.56 1161.22 948.472 1161.26 951.352 1161.32C954.232 1161.32 956.92 1161.32 959.416 1161.32C961.912 1161.32 963.96 1161.32 965.56 1161.32C968.504 1161.32 971.832 1161.32 975.544 1161.32C979.32 1161.26 982.68 1161.16 985.624 1161.03ZM971.32 1194.25C971.32 1194.25 971.32 1194.57 971.32 1195.21C971.32 1195.85 971.32 1196.17 971.32 1196.17H953.848C953.848 1196.17 953.848 1195.85 953.848 1195.21C953.848 1194.57 953.848 1194.25 953.848 1194.25H971.32ZM973.72 1181.58C973.464 1185.22 973.336 1188.01 973.336 1189.93C973.4 1191.85 973.432 1193.61 973.432 1195.21C973.432 1196.81 973.464 1198.57 973.528 1200.49C973.592 1202.41 973.752 1205.19 974.008 1208.84H971.8C971.416 1206.6 970.808 1204.52 969.976 1202.6C969.144 1200.68 967.928 1199.14 966.328 1197.99C964.728 1196.78 962.648 1196.17 960.088 1196.17V1194.25C962.008 1194.25 963.608 1193.86 964.888 1193.1C966.232 1192.26 967.352 1191.21 968.248 1189.93C969.144 1188.58 969.848 1187.18 970.36 1185.7C970.872 1184.23 971.256 1182.86 971.512 1181.58H973.72ZM1037.92 1178.31V1218.54C1037.92 1221.42 1038.37 1223.56 1039.27 1224.97C1040.16 1226.31 1041.76 1226.98 1044.07 1226.98V1229C1042.08 1228.81 1040.1 1228.71 1038.12 1228.71C1035.43 1228.71 1032.93 1228.81 1030.63 1229C1028.32 1229.19 1026.15 1229.54 1024.1 1230.06V1221.42C1022.56 1224.62 1020.42 1226.92 1017.67 1228.33C1014.98 1229.67 1011.97 1230.34 1008.64 1230.34C1005.96 1230.34 1003.78 1229.99 1002.12 1229.29C1000.45 1228.58 999.141 1227.69 998.181 1226.6C997.093 1225.38 996.325 1223.78 995.877 1221.8C995.429 1219.82 995.205 1217.26 995.205 1214.12V1189.83C995.205 1186.95 994.757 1184.84 993.861 1183.5C993.029 1182.09 991.429 1181.38 989.061 1181.38V1179.37C991.109 1179.56 993.093 1179.66 995.013 1179.66C997.701 1179.66 1000.2 1179.56 1002.5 1179.37C1004.87 1179.11 1007.04 1178.76 1009.03 1178.31V1218.06C1009.03 1219.66 1009.16 1221.06 1009.41 1222.28C1009.73 1223.5 1010.31 1224.46 1011.14 1225.16C1011.97 1225.8 1013.19 1226.12 1014.79 1226.12C1016.52 1226.12 1018.05 1225.64 1019.4 1224.68C1020.8 1223.72 1021.92 1222.41 1022.76 1220.74C1023.65 1219.02 1024.1 1217.1 1024.1 1214.98V1189.83C1024.1 1186.95 1023.65 1184.84 1022.76 1183.5C1021.92 1182.09 1020.32 1181.38 1017.96 1181.38V1179.37C1020 1179.56 1021.99 1179.66 1023.91 1179.66C1026.6 1179.66 1029.09 1179.56 1031.4 1179.37C1033.76 1179.11 1035.94 1178.76 1037.92 1178.31ZM1067.82 1163.62V1179.37H1079.15V1181.29H1067.82V1220.07C1067.82 1221.99 1068.18 1223.37 1068.88 1224.2C1069.58 1224.97 1070.64 1225.35 1072.05 1225.35C1073.2 1225.35 1074.35 1224.94 1075.5 1224.1C1076.66 1223.21 1077.68 1221.7 1078.58 1219.59L1080.21 1220.46C1079.18 1223.34 1077.62 1225.7 1075.5 1227.56C1073.46 1229.42 1070.64 1230.34 1067.06 1230.34C1064.94 1230.34 1063.09 1230.06 1061.49 1229.48C1059.89 1228.97 1058.54 1228.17 1057.46 1227.08C1056.05 1225.67 1055.12 1223.94 1054.67 1221.9C1054.22 1219.78 1054 1217.06 1054 1213.74V1181.29H1045.94V1179.37H1054V1166.7C1056.69 1166.7 1059.15 1166.47 1061.39 1166.02C1063.7 1165.51 1065.84 1164.71 1067.82 1163.62ZM1129.89 1178.31V1218.54C1129.89 1221.42 1130.34 1223.56 1131.24 1224.97C1132.13 1226.31 1133.73 1226.98 1136.04 1226.98V1229C1134.05 1228.81 1132.07 1228.71 1130.09 1228.71C1127.4 1228.71 1124.9 1228.81 1122.6 1229C1120.29 1229.19 1118.12 1229.54 1116.07 1230.06V1221.42C1114.53 1224.62 1112.39 1226.92 1109.64 1228.33C1106.95 1229.67 1103.94 1230.34 1100.61 1230.34C1097.93 1230.34 1095.75 1229.99 1094.09 1229.29C1092.42 1228.58 1091.11 1227.69 1090.15 1226.6C1089.06 1225.38 1088.29 1223.78 1087.85 1221.8C1087.4 1219.82 1087.17 1217.26 1087.17 1214.12V1189.83C1087.17 1186.95 1086.73 1184.84 1085.83 1183.5C1085 1182.09 1083.4 1181.38 1081.03 1181.38V1179.37C1083.08 1179.56 1085.06 1179.66 1086.98 1179.66C1089.67 1179.66 1092.17 1179.56 1094.47 1179.37C1096.84 1179.11 1099.01 1178.76 1101 1178.31V1218.06C1101 1219.66 1101.13 1221.06 1101.38 1222.28C1101.7 1223.5 1102.28 1224.46 1103.11 1225.16C1103.94 1225.8 1105.16 1226.12 1106.76 1226.12C1108.49 1226.12 1110.02 1225.64 1111.37 1224.68C1112.77 1223.72 1113.89 1222.41 1114.73 1220.74C1115.62 1219.02 1116.07 1217.1 1116.07 1214.98V1189.83C1116.07 1186.95 1115.62 1184.84 1114.73 1183.5C1113.89 1182.09 1112.29 1181.38 1109.93 1181.38V1179.37C1111.97 1179.56 1113.96 1179.66 1115.88 1179.66C1118.57 1179.66 1121.06 1179.56 1123.37 1179.37C1125.73 1179.11 1127.91 1178.76 1129.89 1178.31ZM1173.33 1178.02C1175.38 1178.02 1177.04 1178.47 1178.32 1179.37C1179.6 1180.2 1180.53 1181.29 1181.1 1182.63C1181.74 1183.98 1182.06 1185.38 1182.06 1186.86C1182.06 1189.22 1181.36 1191.18 1179.95 1192.71C1178.61 1194.18 1176.82 1194.92 1174.58 1194.92C1172.34 1194.92 1170.58 1194.38 1169.3 1193.29C1168.08 1192.14 1167.47 1190.63 1167.47 1188.78C1167.47 1186.98 1167.86 1185.51 1168.62 1184.36C1169.46 1183.14 1170.48 1182.12 1171.7 1181.29C1170.8 1181.03 1169.9 1181.06 1169.01 1181.38C1167.79 1181.58 1166.64 1182.09 1165.55 1182.92C1164.46 1183.69 1163.54 1184.68 1162.77 1185.9C1162 1187.05 1161.39 1188.33 1160.94 1189.74C1160.5 1191.08 1160.27 1192.39 1160.27 1193.67V1219.11C1160.27 1222.18 1161.01 1224.26 1162.48 1225.35C1164.02 1226.44 1166.29 1226.98 1169.3 1226.98V1229C1167.82 1228.94 1165.68 1228.87 1162.86 1228.81C1160.05 1228.68 1157.1 1228.62 1154.03 1228.62C1151.47 1228.62 1148.88 1228.68 1146.26 1228.81C1143.63 1228.87 1141.65 1228.94 1140.3 1229V1226.98C1142.54 1226.98 1144.11 1226.5 1145.01 1225.54C1145.97 1224.58 1146.45 1222.76 1146.45 1220.07V1189.83C1146.45 1186.95 1146 1184.84 1145.1 1183.5C1144.27 1182.09 1142.67 1181.38 1140.3 1181.38V1179.37C1142.35 1179.56 1144.34 1179.66 1146.26 1179.66C1148.94 1179.66 1151.44 1179.56 1153.74 1179.37C1156.11 1179.11 1158.29 1178.76 1160.27 1178.31V1187.24C1161.04 1185.51 1162.06 1183.94 1163.34 1182.54C1164.62 1181.13 1166.1 1180.04 1167.76 1179.27C1169.42 1178.44 1171.28 1178.02 1173.33 1178.02ZM1208.57 1178.02C1214.2 1178.02 1218.62 1179.69 1221.82 1183.02C1225.02 1186.34 1226.62 1191.78 1226.62 1199.34H1195.04L1194.84 1197.51H1214.52C1214.59 1194.38 1214.4 1191.5 1213.95 1188.87C1213.5 1186.18 1212.8 1184.04 1211.84 1182.44C1210.88 1180.84 1209.6 1180.04 1208 1180.04C1205.76 1180.04 1203.84 1181.45 1202.24 1184.26C1200.7 1187.08 1199.77 1191.75 1199.45 1198.28L1199.74 1198.86C1199.68 1199.62 1199.61 1200.42 1199.55 1201.26C1199.55 1202.09 1199.55 1202.95 1199.55 1203.85C1199.55 1208.26 1200.16 1211.85 1201.37 1214.6C1202.65 1217.35 1204.25 1219.37 1206.17 1220.65C1208.09 1221.86 1210.04 1222.47 1212.03 1222.47C1213.37 1222.47 1214.75 1222.28 1216.16 1221.9C1217.63 1221.45 1219.1 1220.68 1220.57 1219.59C1222.04 1218.44 1223.42 1216.84 1224.7 1214.79L1226.43 1215.37C1225.66 1217.8 1224.44 1220.17 1222.78 1222.47C1221.12 1224.78 1219 1226.66 1216.44 1228.14C1213.88 1229.61 1210.81 1230.34 1207.23 1230.34C1202.88 1230.34 1199.04 1229.42 1195.71 1227.56C1192.38 1225.7 1189.76 1222.89 1187.84 1219.11C1185.98 1215.34 1185.05 1210.54 1185.05 1204.71C1185.05 1198.76 1186.04 1193.8 1188.03 1189.83C1190.08 1185.86 1192.86 1182.92 1196.38 1181C1199.96 1179.02 1204.03 1178.02 1208.57 1178.02Z" fill="#1F1F1F"/>
</svg>
